<svg width="21" height="23" viewBox="0 0 21 23" fill="none" xmlns="http://www.w3.org/2000/svg">
<path d="M15.6314 0.0999756H5.01828C2.30694 0.0999756 0.0996094 2.28864 0.0996094 4.97781V17.978C0.0996094 20.6683 2.30694 22.8558 5.01828 22.8558H15.6314C18.3428 22.8558 20.5501 20.6683 20.5501 17.978V4.97781C20.5501 2.28864 18.3428 0.0999756 15.6314 0.0999756ZM19.1373 2.32949L19.2656 2.51381C19.7649 3.24881 20.0333 4.09931 20.0333 4.97781V5.29048H18.0324L19.1373 2.32949ZM20.0053 5.80032V9.88714L18.0651 5.80032H20.0053ZM15.2896 0.60982H15.6034C16.6849 0.60982 17.6999 0.995987 18.5458 1.72749L18.7254 1.87917L15.2896 2.54531V0.60982ZM15.2896 3.05163L18.5504 2.42632L17.4783 5.29048H15.2896V3.05163ZM15.2896 5.80032H17.2519L15.2896 10.2418V5.80032ZM15.2896 12.6918L17.2799 17.1275H15.2896V12.6918ZM15.2896 17.6653H17.4783L18.5224 20.5248L15.2896 19.8995V17.6653ZM5.85011 0.60982H9.29528L5.85011 2.42167V0.60982ZM10.3243 0.642499L14.5231 2.844L10.3243 5.25783L6.12194 2.844L10.3243 0.642499ZM5.85011 3.2675L9.35944 5.29048H5.85011V3.2675ZM5.85011 17.6653H9.33611L5.85011 19.6568V17.6653ZM2.07594 1.69948C2.87978 0.983142 3.91928 0.582976 4.99028 0.582976H5.33211V2.51846L1.90095 1.85581L2.07594 1.69948ZM3.14345 5.29048L2.09928 2.42632L5.33211 3.05163V5.29048H3.14345ZM5.33211 5.80032V10.0481L3.36511 5.80032H5.33211ZM0.616454 4.97781C0.616454 4.09931 0.880109 3.24881 1.38411 2.51381L1.50778 2.32949L2.61611 5.29048H0.616454V4.97781ZM0.616454 5.80032H2.57995L0.616454 10.2418V5.80032ZM0.616454 12.6918L2.60328 17.1275H0.616454V12.6918ZM1.51244 20.6263L1.38411 20.4385C0.880109 19.7023 0.616454 18.8518 0.616454 17.978V17.6653H2.58928L1.51244 20.6263ZM5.33211 22.3413H5.01828C3.94261 22.3413 2.87044 21.9365 2.07594 21.2236L1.90095 21.072L5.33211 20.4058V22.3413ZM5.33211 19.9006L2.09928 20.5248L3.14345 17.6653H5.33211V19.9006ZM5.33211 17.1275H3.34644L5.33211 12.6918V17.1275ZM5.32279 11.4458L2.97195 16.7553L0.630443 11.4785L2.97195 6.17715L5.36478 11.3443L5.32279 11.4458ZM5.85011 22.3413V20.5295L9.29528 22.3413H5.85011ZM6.12194 20.0791L10.3243 17.698L14.5231 20.0791L10.3243 22.3086L6.12194 20.0791ZM14.7728 22.3413H11.3544L14.7728 20.5295V22.3413ZM14.7728 19.6568L11.2856 17.6653H14.7728V19.6568ZM14.7728 17.1508H5.85011V5.80032H14.7728V17.1508ZM14.7728 5.31265H11.2903L14.7728 3.29082V5.31265ZM14.7728 2.42167L11.3544 0.60982H14.7728V2.42167ZM18.5458 21.2283C17.7139 21.9458 16.6709 22.3413 15.6034 22.3413H15.2896V20.4058L18.7254 21.072L18.5458 21.2283ZM20.0053 17.978C20.0333 18.8378 19.7743 19.693 19.2656 20.4385L19.1373 20.6216L18.0324 17.6653H20.0053V17.978ZM20.0333 17.1508H18.0418L20.0333 12.7151V17.1508ZM20.0239 11.4458L17.6731 16.7553L15.3316 11.4785L17.6684 6.18182L20.1068 11.2346L20.0239 11.4458Z" stroke="#7C6345" stroke-width="0.2"/>
</svg>
