<svg width="16" height="23" viewBox="0 0 16 23" fill="none" xmlns="http://www.w3.org/2000/svg">
<path d="M14.8402 2.77919L12.2467 0.176345C12.214 0.143678 12.1627 0.125 12.1043 0.125H2.94487C2.86087 0.125 2.82468 0.16469 2.82118 0.16819L0.202023 2.80135C0.190356 2.81185 0.125046 2.86317 0.125046 2.97167V20.019C0.125046 20.0878 0.121511 20.1252 0.176345 20.1753L2.81651 22.826C2.85034 22.8633 2.89703 22.8808 2.96003 22.8808H12.1043C12.1918 22.8808 12.2397 22.8377 12.2467 22.826L12.2758 22.8015L14.888 20.1753C14.9312 20.1322 14.9393 20.0808 14.9393 20.0307V2.99385C14.9393 2.91451 14.9242 2.86319 14.8402 2.77919ZM12.2035 0.813368L14.3023 2.92502L12.8137 3.52584L11.6062 2.31019L12.2035 0.813368ZM10.7032 19.2035H4.35652L3.85953 18.6762V4.42887L4.38686 3.90384H10.7323L11.2562 4.42887V18.6797L10.7032 19.2035ZM10.989 20.5148H4.07884L4.41136 19.6772H10.6227L10.989 20.5148ZM3.39169 4.48718V18.5957L2.55405 18.9632V4.14884L3.39169 4.48718ZM2.71853 3.71487L3.64719 2.78269L3.97969 3.62386L3.55619 4.04968L2.71853 3.71487ZM3.55619 19.0577L3.97969 19.4835L3.64719 20.3247L2.71853 19.3925L3.55619 19.0577ZM4.07884 2.61933H10.9598L10.6262 3.45702H4.41136L4.07884 2.61933ZM11.0835 3.62386L11.416 2.78269L12.3458 3.71487L11.5082 4.04968L11.0835 3.62386ZM11.5082 19.0577L12.3458 19.3925L11.416 20.3247L11.0835 19.4835L11.5082 19.0577ZM11.6983 18.6248V4.48718L12.536 4.14884V18.927L11.6983 18.6248ZM11.7672 0.648845L11.1757 2.1457H3.88869L3.29602 0.648845H11.7672ZM2.86088 0.813368L3.45702 2.31019L2.24952 3.52584L0.760856 2.92502L2.86088 0.813368ZM0.596368 3.36136L2.08503 3.95868V19.1195L0.596368 19.7203V3.36136ZM2.86088 22.2952L0.760856 20.1835L2.24952 19.5827L3.45702 20.7948L2.86088 22.2952ZM3.29602 22.4842L3.88869 20.9908H11.1453L11.7415 22.4842H3.29602ZM12.2035 22.2952L11.6062 20.7948L12.8137 19.5827L14.3023 20.1835L12.2035 22.2952ZM14.496 19.746L13.0038 19.1487V3.95868L14.496 3.36136V19.746Z" stroke="#7C6345" stroke-width="0.25"/>
</svg>
