<svg width="37" height="6" viewBox="0 0 37 6" fill="none" xmlns="http://www.w3.org/2000/svg">
<path d="M36.053 1.5825V1.575C35.678 0.652501 34.778 0 33.727 0H2.513C1.455 0 0.54699 0.6525 0.17999 1.5825C0.0599901 1.8675 0 2.1825 0 2.5125C0 2.835 0.0599901 3.15 0.17999 3.435C0.54699 4.365 1.455 5.025 2.513 5.025H33.727C34.778 5.025 35.678 4.3725 36.053 3.45V3.4425C36.172 3.1575 36.24 2.8425 36.24 2.5125C36.24 2.1825 36.172 1.8675 36.053 1.5825ZM35.093 3.225C34.905 3.15 34.755 3 34.673 2.805C34.635 2.715 34.62 2.6175 34.62 2.52V2.5125C34.62 2.4075 34.635 2.3175 34.68 2.22C34.792 1.95 35.033 1.7775 35.31 1.7475C35.423 1.98 35.49 2.235 35.49 2.5125C35.49 2.79 35.423 3.045 35.31 3.2775C35.235 3.27 35.167 3.255 35.093 3.225ZM2.513 0.75H33.727C34.282 0.75 34.778 1.005 35.093 1.41C34.822 1.4775 34.59 1.6425 34.432 1.8825C34.426 1.8905 34.424 1.8995 34.419 1.9075C34.293 1.7119 34.13 1.546 33.911 1.4554C33.386 1.2354 32.792 1.4413 32.501 1.9091C32.375 1.7129 32.211 1.5463 31.992 1.4554C31.709 1.3367 31.397 1.3353 31.114 1.4539C30.888 1.5471 30.718 1.7199 30.592 1.9249C30.467 1.7209 30.298 1.5488 30.073 1.4553C29.79 1.3366 29.478 1.3352 29.195 1.4538C28.969 1.547 28.799 1.7198 28.673 1.9248C28.548 1.7208 28.379 1.5487 28.154 1.4552C27.629 1.2352 27.035 1.441 26.744 1.9087C26.619 1.7126 26.454 1.5462 26.235 1.4552C25.71 1.2352 25.116 1.441 24.825 1.9087C24.7 1.7126 24.535 1.5462 24.316 1.4552C23.791 1.2352 23.197 1.4411 22.906 1.9089C22.781 1.7126 22.617 1.5461 22.398 1.4552C21.872 1.2352 21.278 1.4411 20.987 1.9089C20.862 1.7127 20.697 1.5461 20.478 1.4552C20.195 1.3365 19.884 1.3351 19.6 1.4537C19.374 1.5469 19.204 1.7197 19.078 1.9247C18.953 1.7207 18.785 1.5486 18.559 1.4551C18.276 1.3364 17.964 1.335 17.682 1.4536C17.455 1.5468 17.285 1.7192 17.159 1.9244C17.034 1.7205 16.865 1.5485 16.64 1.4551C16.115 1.2351 15.521 1.4409 15.23 1.9086C15.105 1.7125 14.941 1.5461 14.722 1.4551C14.196 1.2351 13.602 1.441 13.311 1.9088C13.186 1.7125 13.022 1.546 12.803 1.4551C12.277 1.2351 11.684 1.441 11.392 1.9088C11.267 1.7126 11.103 1.546 10.883 1.4551C10.601 1.3372 10.289 1.3357 10.006 1.4536C9.779 1.5468 9.609 1.7193 9.483 1.9246C9.358 1.7206 9.19 1.5485 8.964 1.455C8.681 1.3363 8.369 1.3349 8.087 1.4535C7.86 1.5467 7.69 1.7195 7.564 1.9245C7.439 1.7205 7.271 1.5484 7.046 1.4549C6.76199 1.3362 6.45 1.3348 6.168 1.4534C5.941 1.5466 5.772 1.719 5.646 1.9242C5.52 1.7203 5.352 1.5483 5.127 1.4549C4.601 1.2349 4.00799 1.4407 3.71599 1.9084C3.59099 1.7123 3.42699 1.5459 3.20799 1.4549C2.68999 1.2384 2.106 1.4331 1.81 1.8851L1.808 1.882C1.681 1.6945 1.501 1.5445 1.291 1.4545C1.238 1.432 1.19299 1.417 1.14099 1.4095C1.46199 1.005 1.958 0.75 2.513 0.75ZM32.699 2.5145L32.698 2.5115C32.699 2.4118 32.718 2.3121 32.758 2.2171C32.881 1.9212 33.169 1.7418 33.471 1.7418C33.57 1.7418 33.671 1.7616 33.767 1.8011C33.957 1.8802 34.105 2.0289 34.184 2.2193C34.262 2.4097 34.262 2.6199 34.183 2.8104C34.104 3.0009 33.955 3.1488 33.765 3.2271C33.574 3.3047 33.365 3.3055 33.174 3.2264C32.984 3.1466 32.835 2.9986 32.757 2.8075C32.718 2.713 32.699 2.6137 32.699 2.5145ZM30.78 2.5145L30.779 2.5115C30.78 2.4118 30.8 2.3121 30.839 2.2171C30.918 2.0267 31.067 1.8787 31.257 1.8004C31.352 1.7616 31.451 1.7418 31.551 1.7418C31.652 1.7418 31.752 1.7616 31.848 1.8011C32.038 1.8802 32.186 2.0282 32.265 2.2186C32.304 2.3133 32.323 2.4126 32.323 2.5118V2.5154C32.323 2.6152 32.303 2.7151 32.264 2.8104C32.185 3.0008 32.036 3.1488 31.845 3.2271C31.655 3.3047 31.446 3.3055 31.255 3.2264C31.065 3.1466 30.916 2.9986 30.838 2.8075C30.799 2.713 30.78 2.6137 30.78 2.5145ZM28.861 2.5145L28.86 2.5115C28.861 2.4118 28.881 2.3121 28.92 2.2171C28.999 2.0267 29.148 1.8787 29.338 1.8004C29.433 1.7616 29.532 1.7418 29.632 1.7418C29.733 1.7418 29.833 1.7616 29.929 1.8011C30.119 1.8802 30.267 2.0282 30.346 2.2186C30.385 2.3133 30.404 2.4126 30.404 2.5118V2.5154C30.404 2.6152 30.384 2.7151 30.345 2.8104C30.181 3.203 29.728 3.3897 29.336 3.2264C29.145 3.1473 28.997 2.9986 28.919 2.8075C28.88 2.713 28.861 2.6137 28.861 2.5145ZM27.001 2.2171C27.124 1.9212 27.412 1.7425 27.714 1.7425C27.813 1.7425 27.913 1.7615 28.01 1.8011C28.2 1.8802 28.348 2.0282 28.427 2.2186C28.466 2.3133 28.485 2.4126 28.485 2.5118V2.5154C28.485 2.6152 28.465 2.7151 28.426 2.8104C28.262 3.203 27.809 3.3897 27.417 3.2264C27.024 3.0623 26.838 2.6097 27.001 2.2171ZM25.022 2.5112C25.023 2.4116 25.042 2.312 25.082 2.2171C25.205 1.9212 25.493 1.7425 25.795 1.7425C25.894 1.7425 25.995 1.7615 26.091 1.8011C26.281 1.8802 26.429 2.0282 26.508 2.2186C26.587 2.4098 26.586 2.6192 26.507 2.8104C26.344 3.203 25.89 3.3897 25.498 3.2264C25.308 3.1466 25.16 2.9986 25.081 2.8075C25.042 2.7132 25.023 2.6142 25.023 2.5153L25.022 2.5112ZM23.103 2.5108C23.104 2.4113 23.123 2.3119 23.163 2.2171C23.286 1.9212 23.574 1.7418 23.876 1.7418C23.975 1.7418 24.076 1.7616 24.172 1.8011C24.362 1.8802 24.51 2.0289 24.589 2.2193C24.628 2.3132 24.647 2.412 24.647 2.5108C24.647 2.5128 24.647 2.5146 24.647 2.5166C24.647 2.6161 24.627 2.7157 24.588 2.8103C24.425 3.2029 23.971 3.3896 23.579 3.2263C23.389 3.1465 23.24 2.9985 23.162 2.8074C23.123 2.7133 23.104 2.6145 23.104 2.5157L23.103 2.5108ZM21.185 2.5145L21.184 2.5115C21.185 2.4118 21.204 2.3121 21.244 2.2171C21.367 1.9212 21.655 1.7418 21.957 1.7418C22.056 1.7418 22.157 1.7616 22.253 1.8011C22.443 1.8802 22.591 2.0289 22.67 2.2193C22.709 2.3136 22.728 2.4128 22.728 2.512V2.5158C22.728 2.6156 22.708 2.7155 22.669 2.8104C22.59 3.0008 22.441 3.1488 22.251 3.2271C22.06 3.3047 21.851 3.3055 21.66 3.2264C21.47 3.1466 21.321 2.9986 21.243 2.8075C21.204 2.713 21.185 2.6137 21.185 2.5145ZM19.266 2.5145L19.265 2.5115C19.266 2.4118 19.285 2.3121 19.325 2.2171C19.404 2.0267 19.552 1.8787 19.743 1.8004C19.838 1.7616 19.937 1.7418 20.037 1.7418C20.138 1.7418 20.238 1.7616 20.334 1.8011C20.524 1.8802 20.672 2.0282 20.751 2.2186C20.79 2.3133 20.809 2.4126 20.809 2.5118V2.5154C20.809 2.6152 20.789 2.7151 20.75 2.8104C20.67 3.0008 20.522 3.1488 20.331 3.2271C20.141 3.3047 19.931 3.3055 19.741 3.2264C19.551 3.1466 19.402 2.9986 19.324 2.8075C19.285 2.713 19.266 2.6137 19.266 2.5145ZM17.406 2.2171C17.485 2.0267 17.634 1.8787 17.824 1.8004C17.919 1.7616 18.019 1.7418 18.118 1.7418C18.219 1.7418 18.32 1.7616 18.415 1.8011C18.605 1.8802 18.753 2.0282 18.832 2.2186C18.871 2.3133 18.89 2.4126 18.89 2.5118V2.5154C18.89 2.6152 18.87 2.7151 18.831 2.8104C18.667 3.203 18.214 3.3897 17.822 3.2264C17.429 3.0623 17.242 2.6097 17.406 2.2171ZM15.427 2.5112C15.428 2.4116 15.447 2.312 15.487 2.2171C15.61 1.9212 15.898 1.7425 16.2 1.7425C16.299 1.7425 16.399 1.7615 16.496 1.8011C16.686 1.8802 16.834 2.0282 16.913 2.2186C16.992 2.4098 16.991 2.6192 16.912 2.8104C16.748 3.203 16.295 3.3897 15.903 3.2264C15.712 3.1466 15.564 2.9986 15.486 2.8075C15.447 2.7132 15.428 2.6142 15.428 2.5153L15.427 2.5112ZM13.508 2.5108C13.509 2.4113 13.528 2.3119 13.568 2.2171C13.691 1.9212 13.979 1.7418 14.281 1.7418C14.38 1.7418 14.481 1.7616 14.577 1.8011C14.767 1.8802 14.915 2.0289 14.994 2.2193C15.033 2.3132 15.052 2.412 15.052 2.5108C15.052 2.5128 15.052 2.5146 15.052 2.5166C15.052 2.6161 15.032 2.7157 14.993 2.8103C14.83 3.2029 14.376 3.3896 13.984 3.2263C13.794 3.1465 13.645 2.9985 13.567 2.8074C13.528 2.7133 13.509 2.6145 13.509 2.5157L13.508 2.5108ZM11.59 2.5145L11.589 2.5115C11.589 2.4118 11.609 2.3121 11.649 2.2171C11.772 1.9212 12.06 1.7418 12.362 1.7418C12.461 1.7418 12.562 1.7616 12.658 1.8011C12.848 1.8802 12.996 2.0289 13.075 2.2193C13.114 2.3136 13.133 2.4128 13.133 2.512V2.5158C13.133 2.6156 13.113 2.7155 13.074 2.8104C12.91 3.203 12.457 3.3897 12.065 3.2264C11.875 3.1466 11.726 2.9986 11.648 2.8075C11.609 2.713 11.59 2.6137 11.59 2.5145ZM9.671 2.5145L9.67 2.5115C9.67 2.4118 9.69 2.3121 9.73 2.2171C9.809 2.0267 9.958 1.8787 10.148 1.8004C10.243 1.7616 10.343 1.7418 10.442 1.7418C10.543 1.7418 10.643 1.7616 10.739 1.8011C10.929 1.8802 11.077 2.0282 11.156 2.2186C11.195 2.3133 11.214 2.4126 11.214 2.5118V2.5154C11.214 2.6152 11.194 2.7151 11.154 2.8104C11.075 3.0008 10.927 3.1488 10.736 3.2271C10.545 3.3047 10.336 3.3055 10.146 3.2264C9.956 3.1466 9.807 2.9986 9.729 2.8075C9.69 2.713 9.671 2.6137 9.671 2.5145ZM7.752 2.5145L7.751 2.5115C7.752 2.4118 7.771 2.3121 7.811 2.2171C7.89 2.0267 8.038 1.8787 8.229 1.8004C8.324 1.7616 8.423 1.7418 8.523 1.7418C8.624 1.7418 8.724 1.7616 8.82 1.8011C9.01 1.8802 9.158 2.0282 9.237 2.2186C9.276 2.3133 9.295 2.4126 9.295 2.5118V2.5154C9.295 2.6152 9.275 2.7151 9.236 2.8104C9.156 3.0008 9.008 3.1488 8.817 3.2271C8.627 3.3047 8.417 3.3055 8.227 3.2264C8.037 3.1466 7.888 2.9986 7.81 2.8075C7.771 2.713 7.752 2.6137 7.752 2.5145ZM5.892 2.2171C5.971 2.0267 6.12 1.8787 6.31 1.8004C6.405 1.7616 6.50399 1.7418 6.60399 1.7418C6.70499 1.7418 6.805 1.7616 6.901 1.8011C7.091 1.8802 7.239 2.0282 7.318 2.2186C7.357 2.3133 7.376 2.4126 7.376 2.5118V2.5154C7.376 2.6152 7.356 2.7151 7.317 2.8104C7.153 3.203 6.7 3.3897 6.308 3.2264C5.915 3.0623 5.728 2.6097 5.892 2.2171ZM3.91299 2.5112C3.91399 2.4116 3.93299 2.312 3.97299 2.2171C4.09599 1.9212 4.38399 1.7425 4.68599 1.7425C4.78499 1.7425 4.88499 1.7615 4.98199 1.8011C5.17199 1.8802 5.31999 2.0282 5.39899 2.2186C5.47799 2.4098 5.47699 2.6192 5.39799 2.8104C5.23399 3.203 4.78099 3.3897 4.38899 3.2264C4.19799 3.1466 4.05 2.9986 3.972 2.8075C3.933 2.7132 3.914 2.6142 3.914 2.5153L3.91299 2.5112ZM1.995 2.5094C1.995 2.4104 2.015 2.3114 2.054 2.2172C2.177 1.9213 2.465 1.7419 2.767 1.7419C2.866 1.7419 2.96599 1.7617 3.06299 1.8012C3.25299 1.8803 3.401 2.029 3.48 2.2194C3.519 2.3133 3.53799 2.4121 3.53799 2.5109C3.53799 2.5129 3.53799 2.5147 3.53799 2.5167C3.53799 2.6162 3.51799 2.7158 3.47899 2.8104C3.31499 3.203 2.862 3.3897 2.47 3.2264C2.279 3.1466 2.13099 2.9986 2.05299 2.8075C2.01399 2.7133 1.995 2.6144 1.995 2.5154V2.5125V2.5094ZM0.75 2.5125C0.75 2.235 0.81 1.98 0.922 1.7475C0.998 1.755 1.07199 1.77 1.14699 1.8C1.33499 1.8825 1.485 2.0325 1.56 2.22C1.597 2.3162 1.61799 2.4124 1.61899 2.5087C1.61899 2.5128 1.62 2.5169 1.62 2.521C1.619 2.6255 1.597 2.7154 1.56 2.8125C1.477 3 1.335 3.15 1.14 3.225C1.065 3.255 0.997 3.27 0.922 3.2775C0.81 3.045 0.75 2.79 0.75 2.5125ZM33.727 4.275H2.513C1.958 4.275 1.462 4.02 1.14 3.615C1.193 3.6075 1.238 3.5925 1.282 3.57C1.5 3.4875 1.67999 3.3375 1.80699 3.15C1.81299 3.1418 1.816 3.1318 1.821 3.1233C1.946 3.3172 2.10899 3.482 2.32599 3.5721C2.46899 3.6322 2.618 3.6607 2.765 3.6607C3.155 3.6607 3.51899 3.4509 3.73099 3.1094C3.85599 3.31 4.022 3.4799 4.245 3.5721C4.388 3.6322 4.53699 3.6607 4.68399 3.6607C5.06699 3.6607 5.42499 3.4582 5.63899 3.1279C5.75999 3.3197 5.938 3.4783 6.164 3.5721C6.307 3.6322 6.456 3.6607 6.603 3.6607C6.993 3.6607 7.357 3.4508 7.569 3.1094C7.694 3.3101 7.861 3.4799 8.083 3.5721C8.225 3.6314 8.374 3.6607 8.524 3.6607C8.672 3.6607 8.82 3.6321 8.961 3.5735C9.187 3.4803 9.357 3.3076 9.483 3.1022C9.608 3.3064 9.777 3.4787 10.002 3.572C10.144 3.6313 10.294 3.6606 10.443 3.6606C10.591 3.6606 10.739 3.632 10.88 3.5734C11.107 3.4802 11.277 3.3073 11.402 3.1021C11.527 3.3063 11.696 3.4786 11.921 3.5719C12.065 3.632 12.214 3.6605 12.36 3.6605C12.751 3.6605 13.114 3.4507 13.326 3.1094C13.451 3.3099 13.618 3.4797 13.84 3.5718C13.984 3.6319 14.133 3.6604 14.279 3.6604C14.67 3.6604 15.034 3.4506 15.245 3.1091C15.37 3.3097 15.537 3.4796 15.759 3.5718C15.903 3.6319 16.052 3.6604 16.198 3.6604C16.582 3.6604 16.939 3.4579 17.153 3.1276C17.275 3.3194 17.453 3.478 17.678 3.5718C17.822 3.6319 17.971 3.6604 18.117 3.6604C18.508 3.6604 18.872 3.4505 19.083 3.1091C19.208 3.3098 19.375 3.4796 19.597 3.5718C19.74 3.6311 19.889 3.6604 20.038 3.6604C20.186 3.6604 20.334 3.6318 20.475 3.5732C20.702 3.48 20.872 3.3071 20.998 3.1019C21.123 3.3061 21.291 3.4784 21.516 3.5717C21.659 3.631 21.808 3.6603 21.957 3.6603C22.105 3.6603 22.253 3.6317 22.394 3.5731C22.621 3.4799 22.791 3.3074 22.917 3.1021C23.042 3.3061 23.21 3.4784 23.436 3.5717C23.579 3.6318 23.728 3.6603 23.875 3.6603C24.265 3.6603 24.629 3.4505 24.841 3.109C24.966 3.3096 25.132 3.4795 25.355 3.5717C25.498 3.6318 25.647 3.6603 25.794 3.6603C26.177 3.6603 26.535 3.4578 26.749 3.1275C26.87 3.3193 27.048 3.4779 27.274 3.5717C27.417 3.6318 27.566 3.6603 27.713 3.6603C28.103 3.6603 28.467 3.4505 28.679 3.109C28.804 3.3096 28.97 3.4795 29.193 3.5717C29.336 3.6318 29.485 3.6603 29.632 3.6603C30.022 3.6603 30.386 3.4504 30.598 3.109C30.723 3.3097 30.889 3.4795 31.112 3.5717C31.254 3.631 31.403 3.6603 31.553 3.6603C31.7 3.6603 31.849 3.6317 31.99 3.5731C32.217 3.4799 32.386 3.307 32.512 3.1018C32.637 3.306 32.806 3.4783 33.031 3.5716C33.173 3.6309 33.322 3.6602 33.472 3.6602C33.619 3.6602 33.768 3.6316 33.909 3.573C34.128 3.4827 34.293 3.3168 34.419 3.1208C34.424 3.1301 34.428 3.1399 34.434 3.1495C34.561 3.337 34.734 3.487 34.951 3.5695C34.996 3.592 35.049 3.607 35.094 3.6145C34.778 4.02 34.282 4.275 33.727 4.275Z" fill="#7C6345"/>
</svg>
