<svg width="37" height="16" viewBox="0 0 37 16" fill="none" xmlns="http://www.w3.org/2000/svg">
<path d="M33.728 5.115H25.32C24.285 2.1375 21.45 0 18.12 0C14.798 0 11.963 2.1375 10.928 5.115H2.513C1.133 5.115 0 6.24 0 7.6275C0 9.0075 1.133 10.14 2.513 10.14H10.928C11.97 13.11 14.798 15.2475 18.12 15.2475C21.45 15.2475 24.278 13.11 25.32 10.14H33.728C35.115 10.14 36.24 9.0075 36.24 7.6275C36.24 6.24 35.115 5.115 33.728 5.115ZM2.513 9.39C1.545 9.39 0.75 8.595 0.75 7.6275C0.75 6.6525 1.545 5.865 2.513 5.865H10.71C10.568 6.4275 10.5 7.02 10.5 7.6275C10.5 8.235 10.575 8.8275 10.71 9.39H2.513ZM24.96 6.9012C24.75 6.6446 24.435 6.4771 24.078 6.4771C23.683 6.4771 23.335 6.6778 23.128 6.9822C23.122 6.9474 23.12 6.9117 23.113 6.8772C23.098 6.6768 23.053 6.4765 22.994 6.2834C23.058 6.3268 23.113 6.3814 23.186 6.4118C23.329 6.4711 23.478 6.5004 23.627 6.5004C23.775 6.5004 23.923 6.4711 24.065 6.4132C24.347 6.2967 24.568 6.0763 24.686 5.7936C24.699 5.7627 24.705 5.7305 24.715 5.699C24.736 5.7561 24.751 5.8071 24.765 5.8648C24.855 6.2023 24.923 6.5473 24.96 6.8998V6.9012ZM24.849 7.6241C24.849 8.0496 24.503 8.3953 24.078 8.3953C23.652 8.3953 23.306 8.0496 23.306 7.6241C23.306 7.1986 23.652 6.8521 24.078 6.8521C24.504 6.8521 24.849 7.1985 24.849 7.6241ZM24.333 10.2088C24.169 10.6014 23.716 10.7881 23.324 10.6248C22.931 10.4607 22.744 10.0088 22.908 9.6155C23.031 9.3196 23.319 9.1402 23.622 9.1402C23.721 9.1402 23.821 9.1592 23.918 9.1995C24.107 9.2793 24.255 9.4273 24.334 9.6184C24.413 9.8089 24.413 10.0183 24.333 10.2088ZM24.34 5.0591C24.419 5.2495 24.418 5.459 24.339 5.6494C24.26 5.8398 24.112 5.9878 23.922 6.0661H23.921C23.732 6.1452 23.521 6.1445 23.331 6.0654C23.141 5.9863 22.993 5.8376 22.914 5.6472C22.835 5.4568 22.836 5.2473 22.915 5.0569C22.994 4.8665 23.143 4.7185 23.333 4.6402C23.428 4.6006 23.527 4.5809 23.627 4.5809C23.728 4.5809 23.828 4.6014 23.923 4.641C24.114 4.72 24.262 4.8687 24.34 5.0591ZM23.468 3.3075C23.73 3.63 23.963 3.9825 24.165 4.35C24.168 4.3546 24.169 4.3595 24.172 4.3641C24.135 4.3437 24.107 4.311 24.068 4.2945C23.783 4.1758 23.471 4.1773 23.19 4.293C22.907 4.4095 22.686 4.6299 22.568 4.9126C22.541 4.9772 22.522 5.0437 22.508 5.1108C22.413 4.9379 22.305 4.7712 22.175 4.6122C22.15 4.5763 22.116 4.5463 22.09 4.5112C22.171 4.5287 22.25 4.5582 22.332 4.5582C22.626 4.5582 22.92 4.4461 23.143 4.2228C23.397 3.9691 23.49 3.627 23.456 3.2949C23.457 3.2967 23.459 3.2983 23.46 3.3001L23.468 3.3075ZM22.878 12.3811C22.576 12.6829 22.087 12.6829 21.786 12.3811C21.486 12.0808 21.486 11.5908 21.786 11.2898C21.936 11.1397 22.134 11.0642 22.333 11.0642C22.53 11.0642 22.727 11.1396 22.878 11.2898C23.178 11.5909 23.179 12.0808 22.878 12.3811ZM20.038 11.4672L20.293 9.7797L21.98 9.5247C21.56 10.3647 20.878 11.0547 20.038 11.4672ZM20.685 13.843C20.495 13.9221 20.284 13.9221 20.094 13.8423C19.904 13.7639 19.756 13.6152 19.678 13.4241C19.515 13.0315 19.703 12.5789 20.097 12.417C20.192 12.3774 20.291 12.3577 20.391 12.3577C20.491 12.3577 20.592 12.3782 20.688 12.4178C20.878 12.4969 21.026 12.6456 21.104 12.8353C21.266 13.2293 21.079 13.6819 20.685 13.843ZM18.121 14.3521C17.696 14.3521 17.35 14.0057 17.35 13.5801C17.35 13.1545 17.696 12.8081 18.121 12.8081C18.547 12.8081 18.893 13.1545 18.893 13.5801C18.893 14.0057 18.547 14.3521 18.121 14.3521ZM18.118 11.9247C17.645 11.9247 17.188 11.8497 16.76 11.6997L16.753 11.6922L18.118 10.6797L19.49 11.6772L19.476 11.7072C19.048 11.8497 18.59 11.9247 18.118 11.9247ZM16.127 13.8365C15.936 13.9141 15.727 13.9141 15.536 13.8358C15.346 13.756 15.198 13.608 15.12 13.4176C15.041 13.2272 15.041 13.017 15.12 12.8265C15.2 12.6361 15.348 12.4881 15.539 12.4098C15.634 12.371 15.733 12.3512 15.833 12.3512C15.933 12.3512 16.034 12.371 16.13 12.4105C16.32 12.4903 16.468 12.6383 16.546 12.8287C16.625 13.0191 16.625 13.2293 16.546 13.4198C16.466 13.6101 16.318 13.7581 16.127 13.8365ZM13.137 11.8355C13.137 11.6297 13.218 11.4356 13.363 11.2898C13.513 11.1397 13.711 11.0642 13.909 11.0642C14.107 11.0642 14.304 11.1396 14.455 11.2898C14.755 11.5908 14.755 12.0808 14.455 12.3811C14.162 12.6733 13.654 12.6719 13.363 12.3811C13.218 12.2354 13.137 12.042 13.137 11.8355ZM13.363 2.8662C13.513 2.7161 13.711 2.6406 13.909 2.6406C14.106 2.6406 14.304 2.716 14.455 2.8662C14.755 3.168 14.755 3.6572 14.455 3.9575C14.162 4.2497 13.654 4.2483 13.363 3.9575C13.218 3.8117 13.137 3.6184 13.137 3.4118C13.137 3.2061 13.218 3.012 13.363 2.8662ZM16.205 3.7572L15.95 5.4372L14.27 5.6997C14.683 4.8597 15.365 4.1772 16.205 3.7572ZM15.138 1.8203C15.216 1.6299 15.365 1.4819 15.556 1.4036C15.651 1.364 15.75 1.3443 15.85 1.3443C15.95 1.3443 16.051 1.3648 16.147 1.4044C16.337 1.4835 16.485 1.6322 16.563 1.8233C16.642 2.0137 16.642 2.2232 16.562 2.4136C16.483 2.604 16.335 2.752 16.145 2.8303C15.953 2.9094 15.743 2.9079 15.554 2.8296C15.364 2.7505 15.215 2.6018 15.137 2.4107C15.058 2.2202 15.059 2.0108 15.138 1.8203ZM18.121 0.896C18.547 0.896 18.893 1.2417 18.893 1.6672C18.893 2.0927 18.547 2.4392 18.121 2.4392C17.696 2.4392 17.35 2.0928 17.35 1.6672C17.35 1.2416 17.696 0.896 18.121 0.896ZM19.483 3.5322L18.118 4.5372L16.753 3.5397L16.76 3.5322C17.188 3.3822 17.645 3.3072 18.118 3.3072C18.598 3.3072 19.055 3.3822 19.483 3.5322ZM20.707 1.4117C21.099 1.5758 21.286 2.0284 21.123 2.4217C21.043 2.6121 20.895 2.7601 20.704 2.8384C20.513 2.916 20.304 2.916 20.113 2.8377C19.721 2.6736 19.534 2.221 19.697 1.8277C19.821 1.5318 20.109 1.3531 20.411 1.3531C20.51 1.3531 20.61 1.3721 20.707 1.4117ZM22.878 3.9576C22.576 4.2601 22.087 4.2586 21.786 3.9576C21.486 3.6573 21.486 3.1673 21.786 2.8663C21.936 2.7162 22.135 2.6407 22.333 2.6407C22.53 2.6407 22.727 2.7161 22.878 2.8663C23.178 3.1673 23.179 3.6573 22.878 3.9576ZM21.98 5.6997L20.293 5.4222L20.038 3.7572C20.878 4.1772 21.56 4.8597 21.98 5.6997ZM19.625 11.2647L18.553 10.4772L19.835 9.9522L19.625 11.2647ZM18.118 10.1922L16.295 9.4347L15.538 7.6122L16.295 5.7822L18.118 5.0247L19.948 5.7822L20.705 7.6122L19.948 9.4347L18.118 10.1922ZM16.408 9.9372L17.69 10.4622L16.603 11.2497L16.408 9.9372ZM15.26 8.0397L15.793 9.3222L14.473 9.1122L15.26 8.0397ZM15.245 7.1847L14.465 6.1122L15.778 5.9097L15.245 7.1847ZM16.618 3.9522L17.69 4.7397L16.408 5.2647L16.618 3.9522ZM19.835 5.2797L18.553 4.7547L19.64 3.9672L19.835 5.2797ZM20.998 8.0397L21.778 9.1122L20.45 9.3222L20.998 8.0397ZM20.45 5.8947L21.763 6.1122L20.998 7.1847L20.45 5.8947ZM15.05 7.6122L14.045 8.9772L14.038 8.9697C13.888 8.5497 13.813 8.0922 13.813 7.6197C13.813 7.1322 13.895 6.6747 14.045 6.2397L15.05 7.6122ZM14.27 9.5247L15.95 9.7947L16.205 11.4672C15.365 11.0547 14.675 10.3647 14.27 9.5247ZM21.193 7.6122L22.198 6.2397C22.348 6.6747 22.43 7.1322 22.43 7.6197C22.43 8.0922 22.355 8.5497 22.205 8.9697L22.198 8.9772L21.193 7.6122ZM21.435 1.6125C21.788 1.7925 22.11 2.0175 22.425 2.2725C22.431 2.2771 22.436 2.2827 22.442 2.2873C22.112 2.2553 21.773 2.3493 21.521 2.6011C21.236 2.8872 21.153 3.2842 21.233 3.6525C21.195 3.6244 21.164 3.589 21.126 3.5622C20.974 3.4385 20.809 3.3379 20.645 3.2463C20.713 3.2319 20.781 3.2123 20.847 3.1849C21.13 3.0684 21.351 2.8487 21.468 2.5653C21.603 2.242 21.574 1.8937 21.426 1.6039L21.428 1.6051L21.435 1.6125ZM18.855 0.7875C19.275 0.8325 19.68 0.915 20.07 1.035L20.071 1.0354C19.759 1.1333 19.487 1.3586 19.352 1.6841C19.202 2.0422 19.251 2.4331 19.444 2.7385C19.256 2.6821 19.062 2.6391 18.86 2.6247C18.831 2.6182 18.8 2.6169 18.77 2.6115C19.07 2.4044 19.268 2.0587 19.268 1.6673C19.268 1.312 19.102 0.9979 18.847 0.7875H18.855ZM17.385 0.7875H17.393L17.395 0.7874C17.141 0.9978 16.975 1.3119 16.975 1.6673C16.975 2.0558 17.17 2.3989 17.466 2.6065C17.439 2.6109 17.41 2.6121 17.383 2.6173C17.182 2.6388 16.981 2.6831 16.787 2.7392C16.828 2.6781 16.88 2.6263 16.909 2.5572C17.027 2.2745 17.027 1.9632 16.91 1.6798C16.775 1.3533 16.504 1.1268 16.191 1.0282L16.193 1.0276C16.575 0.915 16.98 0.8325 17.385 0.7875ZM14.835 1.59L14.839 1.5883C14.688 1.8785 14.656 2.2284 14.79 2.5535C14.907 2.8369 15.127 3.0581 15.41 3.1753C15.474 3.2022 15.54 3.2211 15.607 3.2357C15.437 3.3295 15.266 3.4344 15.11 3.5622C15.074 3.5878 15.044 3.6215 15.009 3.6484C15.087 3.2812 15.004 2.8861 14.72 2.6011C14.47 2.3518 14.135 2.2565 13.808 2.2855C13.813 2.2814 13.818 2.2766 13.823 2.2725C14.138 2.0175 14.475 1.785 14.835 1.59ZM12.77 3.3257C12.768 3.3546 12.762 3.3826 12.762 3.4119C12.762 3.7188 12.881 4.0066 13.098 4.2227C13.314 4.4395 13.602 4.5589 13.909 4.5589C13.982 4.5589 14.054 4.5512 14.125 4.5378C14.107 4.5611 14.085 4.5811 14.068 4.6047C13.94 4.7608 13.835 4.9248 13.741 5.0943C13.727 5.0282 13.708 4.9625 13.682 4.8987C13.565 4.6153 13.346 4.3941 13.062 4.2769C12.782 4.159 12.469 4.1575 12.186 4.2754C12.149 4.2905 12.123 4.3211 12.089 4.3396C12.092 4.3333 12.094 4.3263 12.098 4.32C12.292 3.9687 12.517 3.6398 12.77 3.3257ZM11.901 10.1875C11.738 9.7949 11.926 9.3423 12.32 9.1804C12.414 9.1408 12.514 9.1211 12.613 9.1211C12.714 9.1211 12.815 9.1416 12.911 9.1812C13.1 9.2603 13.248 9.409 13.327 9.6001C13.406 9.7905 13.405 10 13.326 10.1904C13.247 10.3808 13.099 10.5288 12.908 10.6071C12.517 10.7705 12.062 10.5801 11.901 10.1875ZM11.91 5.0386C11.989 4.8482 12.137 4.7002 12.328 4.6219C12.423 4.5831 12.523 4.5633 12.622 4.5633C12.722 4.5633 12.823 4.5831 12.919 4.6226C13.109 4.7024 13.257 4.8504 13.335 5.0415C13.414 5.2319 13.414 5.4414 13.335 5.6318C13.255 5.8222 13.107 5.9702 12.916 6.0485C12.725 6.1261 12.516 6.1261 12.325 6.0478C12.136 5.9687 11.988 5.8207 11.909 5.6303C11.83 5.4392 11.83 5.2298 11.91 5.0386ZM11.483 5.865C11.497 5.7987 11.512 5.7398 11.534 5.6808C11.544 5.7115 11.55 5.743 11.562 5.7732C11.679 6.0559 11.899 6.2764 12.182 6.3936C12.325 6.4537 12.474 6.4815 12.621 6.4815C12.844 6.4815 13.061 6.4154 13.246 6.2954C13.189 6.485 13.144 6.6808 13.123 6.8772C13.117 6.9098 13.115 6.9436 13.11 6.9764C12.903 6.6754 12.557 6.477 12.165 6.477C11.816 6.477 11.506 6.6378 11.295 6.8854C11.325 6.533 11.393 6.195 11.483 5.865ZM12.937 7.6241C12.937 8.0496 12.591 8.3953 12.165 8.3953C11.739 8.3953 11.393 8.0496 11.393 7.6241C11.393 7.1986 11.739 6.8521 12.165 6.8521C12.591 6.8521 12.937 7.1985 12.937 7.6241ZM11.288 8.3534C11.498 8.6059 11.811 8.7703 12.165 8.7703C12.557 8.7703 12.903 8.5721 13.11 8.2712C13.113 8.2935 13.112 8.3176 13.115 8.3398C13.145 8.5498 13.183 8.7523 13.243 8.9473C13.244 8.9533 13.247 8.9588 13.248 8.9648C13.184 8.9208 13.128 8.8656 13.054 8.8348C12.772 8.7191 12.461 8.7176 12.176 8.8333C11.852 8.9673 11.627 9.2353 11.527 9.5456C11.512 9.4937 11.497 9.4419 11.483 9.39C11.393 9.0525 11.325 8.7075 11.288 8.355V8.3534ZM12.087 10.8992C12.251 10.9844 12.429 11.0401 12.616 11.0401C12.761 11.0401 12.908 11.013 13.051 10.9544C13.334 10.8372 13.555 10.6175 13.672 10.334C13.699 10.2695 13.718 10.2033 13.733 10.1365C13.833 10.3072 13.939 10.4781 14.06 10.6347C14.087 10.6704 14.12 10.7011 14.148 10.7361C13.78 10.6568 13.384 10.7392 13.098 11.0246C12.881 11.2414 12.762 11.5292 12.762 11.8354C12.762 11.8647 12.768 11.8928 12.77 11.9217C12.509 11.6076 12.285 11.2712 12.09 10.9124V10.9049C12.089 10.9031 12.088 10.9011 12.087 10.8992ZM13.823 12.975L13.821 12.9739C13.851 12.9761 13.879 12.9825 13.909 12.9825C14.215 12.9825 14.503 12.8631 14.72 12.6463C15.006 12.3603 15.088 11.9628 15.008 11.5939C15.038 11.6177 15.064 11.6467 15.095 11.6698C15.254 11.7928 15.422 11.901 15.595 12.0028C15.239 12.079 14.924 12.3221 14.775 12.683C14.64 13.0069 14.67 13.3558 14.819 13.6457C14.817 13.6446 14.814 13.6438 14.812 13.6426C14.46 13.4475 14.13 13.23 13.823 12.975ZM17.385 14.46C16.966 14.415 16.561 14.3327 16.171 14.2128C16.204 14.2025 16.238 14.1963 16.27 14.1829C16.553 14.0664 16.774 13.8467 16.891 13.5633C17.044 13.1971 16.991 12.7963 16.787 12.4883C16.98 12.555 17.181 12.5923 17.39 12.6147C17.422 12.6206 17.453 12.6221 17.485 12.627C17.178 12.833 16.975 13.1833 16.975 13.5801C16.975 13.9353 17.14 14.2495 17.395 14.4601L17.393 14.46H17.385ZM18.848 14.46C19.102 14.2494 19.268 13.9353 19.268 13.5801C19.268 13.184 19.066 12.8341 18.759 12.6279C18.785 12.6243 18.812 12.6263 18.838 12.6222C19.042 12.594 19.239 12.5501 19.436 12.4954C19.233 12.8026 19.18 13.2021 19.33 13.5676C19.465 13.893 19.734 14.1215 20.046 14.2205C19.664 14.3327 19.267 14.415 18.855 14.46H18.848ZM21.398 13.665C21.392 13.668 21.386 13.6701 21.381 13.6731C21.401 13.6366 21.433 13.6095 21.449 13.5706C21.567 13.2879 21.568 12.9759 21.452 12.6932C21.3 12.3285 20.983 12.0822 20.622 12.0076L20.623 12.0073C20.803 11.9098 20.975 11.7973 21.14 11.6698C21.173 11.6454 21.201 11.6147 21.234 11.5895C21.152 11.9596 21.234 12.3592 21.521 12.6463C21.744 12.8697 22.038 12.9817 22.332 12.9817C22.369 12.9817 22.405 12.964 22.442 12.9604C22.436 12.965 22.431 12.9705 22.425 12.975C22.103 13.2375 21.758 13.47 21.398 13.665ZM23.468 11.94V11.9475C23.463 11.9529 23.458 11.9574 23.454 11.9627C23.491 11.6277 23.399 11.2813 23.143 11.0247C22.857 10.7383 22.458 10.6561 22.088 10.7369C22.118 10.6989 22.154 10.6661 22.183 10.6273C22.3 10.4761 22.401 10.3111 22.499 10.1463C22.574 10.5039 22.818 10.8202 23.18 10.9706C23.324 11.0307 23.472 11.0592 23.619 11.0592C23.809 11.0592 23.991 11.0024 24.156 10.914C24.154 10.9184 24.153 10.9232 24.15 10.9275C23.948 11.2875 23.723 11.625 23.468 11.94ZM24.765 9.39C24.75 9.4567 24.735 9.5162 24.713 9.5827C24.702 9.5467 24.695 9.5101 24.681 9.4749C24.564 9.1922 24.344 8.971 24.061 8.8538C23.699 8.7021 23.303 8.7525 22.997 8.9511C22.998 8.9473 23 8.9436 23 8.9397C23.06 8.7447 23.098 8.5497 23.12 8.3472C23.125 8.321 23.126 8.2947 23.13 8.2685C23.337 8.571 23.685 8.7703 24.078 8.7703C24.435 8.7703 24.75 8.6031 24.96 8.3466C24.923 8.6991 24.855 9.0525 24.765 9.39ZM33.728 9.39H25.538C25.673 8.8275 25.748 8.235 25.748 7.6275C25.748 7.02 25.68 6.4275 25.538 5.865H33.728C34.703 5.865 35.49 6.6525 35.49 7.6275C35.49 8.595 34.703 9.39 33.728 9.39Z" fill="#7C6345"/>
</svg>
