<svg width="18" height="26" viewBox="0 0 18 26" fill="none" xmlns="http://www.w3.org/2000/svg">
<path d="M17.1681 7.90811C16.8858 6.92979 16.5201 6.01131 16.0817 5.18131C14.5362 2.25938 12.1009 0.367828 9.56144 0.137551C9.37664 0.116738 9.18543 0.111511 8.9955 0.111511C6.92571 0.111511 4.73621 1.28499 3.14514 3.24942C1.36805 5.44282 0.30258 8.52345 0.132153 11.928C0.116543 12.209 0.111328 12.507 0.111328 12.7997C0.111328 16.1158 1.00769 19.2588 2.63517 21.637C2.70672 21.7398 2.77958 21.8374 2.85113 21.9388C4.10785 23.6522 6.40013 25.4865 9.0515 25.4865C12.7293 25.4865 14.9747 22.3954 15.7682 21.0685C16.0245 20.6378 16.2574 20.1812 16.463 19.7194C16.757 19.0429 17.0146 18.3248 17.2201 17.5871C18.106 14.4245 18.0905 11.0824 17.1681 7.90811ZM16.757 8.57549C17.0237 9.61625 17.1889 10.6714 17.2462 11.7173L17.2669 12.0504L14.8198 9.60583L16.7101 8.40637L16.757 8.57549ZM8.96435 17.9046L6.55884 16.4644L5.50377 12.7997L6.55884 9.12839L8.96435 7.68824L11.3749 9.12839L12.43 12.7997L11.3749 16.4644L8.96435 17.9046ZM11.2461 17.1825L10.9574 19.8937L9.42226 18.2844L11.2461 17.1825ZM8.4803 18.2844L6.94522 19.8937L6.65769 17.1825L8.4803 18.2844ZM4.86501 12.7997L3.48989 15.5212L0.776118 12.7997L3.48989 10.0716L4.86501 12.7997ZM4.01548 9.78537L5.87974 9.3743L5.12258 11.9892L4.01548 9.78537ZM5.12258 13.5984L5.87974 16.2498L4.01548 15.8335L5.12258 13.5984ZM6.68763 8.41156L6.97125 5.6991L8.51156 7.31358L6.68763 8.41156ZM9.42226 7.31358L10.9885 5.7043L11.2721 8.40637L9.42226 7.31358ZM12.054 9.34436L13.9182 9.75937L12.8059 11.9944L12.054 9.34436ZM12.8059 13.6037L13.9182 15.8088L12.054 16.2238L12.8059 13.6037ZM13.0688 12.7997L14.4438 10.0716L17.1576 12.7997L14.4438 15.5212L13.0688 12.7997ZM15.2583 4.8691L15.4535 5.21255C15.8763 5.97101 16.2261 6.79579 16.5241 7.74418L16.5501 7.83657L14.7483 9.0009L15.2583 4.8691ZM14.0991 9.23117L11.8901 8.73942L11.5246 5.2581L14.6859 4.43849L14.0991 9.23117ZM12.538 1.86002C13.1872 2.30104 13.8363 2.92028 14.4647 3.70476L14.5883 3.85825L11.6274 4.62322L12.3897 1.75723L12.538 1.86002ZM9.66936 0.737288C10.3914 0.819246 11.0913 1.03391 11.7509 1.38256L11.8433 1.42938L11.1278 4.15097L9.43778 0.711248L9.66936 0.737288ZM10.8442 4.99137L8.96435 6.94542L7.08962 4.96669L8.96948 1.09115L10.8442 4.99137ZM6.03455 1.46971C6.73968 1.07031 7.51243 0.819246 8.26435 0.737288L8.49593 0.711248L6.78649 4.21211L5.94088 1.52175L6.03455 1.46971ZM3.49509 3.70997C4.0519 2.96713 4.65945 2.37258 5.30732 1.94196L5.45171 1.84437L6.31685 4.62842L3.38193 3.85825L3.49509 3.70997ZM6.41053 5.23336L6.01373 8.73942L3.83464 9.23117L3.2167 4.41244L6.41053 5.23336ZM1.37844 7.90811C1.65166 6.99094 2.01201 6.10891 2.48035 5.21255L2.6716 4.84309L3.18677 9.03603L1.35245 8.00569L1.37844 7.90811ZM0.688945 11.7433C0.739683 10.7793 0.889296 9.7997 1.15209 8.74462L1.18851 8.58069L3.09311 9.65137L0.668143 12.0764L0.688945 11.7433ZM1.17812 17.0186C0.910122 15.9778 0.739683 14.9215 0.688945 13.8807L0.668143 13.5425L3.11392 15.9883L1.22363 17.1878L1.17812 17.0186ZM2.67679 20.7302L2.48035 20.3816C2.05884 19.6219 1.7076 18.7971 1.40968 17.8487L1.37844 17.7563L3.18547 16.5932L2.67679 20.7302ZM3.83464 16.3617L6.04496 16.8547L6.41053 20.3347L3.24791 21.1557L3.83464 16.3617ZM5.39058 23.7342C4.7466 23.2932 4.09744 22.6726 3.46909 21.888L3.34549 21.7346L6.30646 20.9709L5.54539 23.8357L5.39058 23.7342ZM8.26435 24.8569C7.5437 24.775 6.84244 24.5589 6.17895 24.2103L6.0905 24.1648L6.806 21.4419L8.49593 24.8867L8.26435 24.8569ZM8.96435 24.503L7.08962 20.6014L8.96948 18.6488L10.8442 20.6275L8.96435 24.503ZM11.8954 24.1283C11.1733 24.503 10.4369 24.7489 9.70063 24.8569L9.46391 24.892L11.1433 21.3755L11.9929 24.0775L11.8954 24.1283ZM14.4647 21.9193C13.8363 22.6778 13.234 23.2463 12.6265 23.6522L12.4821 23.7484L11.6481 20.9917L14.5883 21.7658L14.4647 21.9193ZM11.5246 20.3608L11.92 16.8547L14.0991 16.3617L14.7171 21.1803L11.5246 20.3608ZM16.5814 17.6899C16.2678 18.6435 15.9009 19.5255 15.4535 20.3816L15.2635 20.7497L14.7483 16.562L16.6125 17.5871L16.5814 17.6899ZM17.2462 13.8495C17.1941 14.8135 17.0393 15.7984 16.7817 16.8496L16.7413 17.0186L14.8407 15.9414L17.2669 13.5165L17.2462 13.8495Z" stroke="#7C6345" stroke-width="0.22302"/>
</svg>
