<svg width="23" height="23" viewBox="0 0 23 23" fill="none" xmlns="http://www.w3.org/2000/svg">
<path d="M0.125 0.125V22.8808H22.8808V0.125H0.125ZM11.5035 17.6542L14.9277 19.277H8.0784L11.5035 17.6542ZM7.14122 19.1802L6.74455 16.9005L10.6519 17.5258L7.14122 19.1802ZM12.3552 17.5258L16.2343 16.9005L15.8645 19.1802L12.3552 17.5258ZM11.4895 17.135L11.4802 17.1257L11.472 17.1303L11.4358 17.1257L6.68609 16.3487L5.89743 11.5035L6.68609 6.6525L11.472 5.87203L11.5035 5.88484L11.535 5.87203L11.5712 5.87669L16.3475 6.6525L17.1268 11.4183L16.3207 16.3487L11.4895 17.135ZM5.35213 11.5035L3.72988 14.9183V8.11083L5.35213 11.5035ZM3.84713 7.11218L6.12727 6.74001L5.50099 10.6483L3.84713 7.11218ZM5.50099 12.3587L6.12727 16.2378L3.84713 15.8657L5.50099 12.3587ZM11.5035 5.35168L8.0784 3.72419H14.9545L11.5035 5.35168ZM15.8645 3.84436L16.2343 6.1287L12.3552 5.49869L15.8645 3.84436ZM10.6519 5.49869L6.77162 6.1287L7.14122 3.84436L10.6519 5.49869ZM16.8783 6.76333L19.1592 7.1355L17.5048 10.6437L16.8783 6.76333ZM17.5048 12.3808L19.1592 15.9158L16.8783 16.2845L17.5048 12.3808ZM17.6542 11.5035L19.2758 8.08284V14.9463L17.6542 11.5035ZM16.7663 6.21151L16.3428 3.6005L22.0968 0.906678L19.375 6.63502L16.7663 6.21151ZM21.4797 0.634845L16.0267 3.21434L6.9563 3.20036L1.5265 0.634845H21.4797ZM6.6364 3.6005L6.2129 6.2395L3.60377 6.65717L0.913655 0.906678L6.6364 3.6005ZM0.643233 1.53202L3.21177 7.00252L3.20267 16.05L0.643233 21.4703V1.53202ZM3.63083 16.3895L6.23996 16.813L6.66347 19.4287L0.909117 22.1178L3.63083 16.3895ZM1.5265 22.3943L7.00599 19.8148L16.05 19.8242L21.4797 22.3943H1.5265ZM16.3697 19.4053L16.7932 16.813L19.4018 16.3895L22.0922 22.1225L16.3697 19.4053ZM22.3628 21.4703L19.7938 16.022L19.8032 6.95236L22.3628 1.53202V21.4703Z" stroke="#7C6345" stroke-width="0.25"/>
</svg>
