<svg width="23" height="23" viewBox="0 0 23 23" fill="none" xmlns="http://www.w3.org/2000/svg">
<path d="M22.3958 8.24568C21.899 6.56684 21.0253 5.02214 19.8709 3.76564C17.7554 1.47081 14.6188 0.0999756 11.4823 0.0999756C8.49297 0.0999756 5.57723 1.29115 3.47548 3.37482C0.739066 6.07915 -0.461317 10.0901 0.348116 13.8351C0.840216 16.0926 2.01295 18.1903 3.6548 19.7455C6.40043 22.3483 10.3924 23.4251 14.0624 22.5653C16.3205 22.031 18.413 20.7943 19.9537 19.0781C21.8116 17.0038 22.8418 14.3041 22.8557 11.4703C22.8602 10.3666 22.7039 9.28514 22.3958 8.24568ZM19.5213 4.14831L19.6778 4.32683C20.3492 5.10033 20.8965 5.94151 21.3517 6.89818L21.4024 7.00898L18.7993 8.15467L19.5213 4.14831ZM11.4823 16.0658L8.2308 14.7183L6.88332 11.4703L8.2308 8.21882L11.4823 6.87482L14.7338 8.21882L16.0813 11.4703L14.7338 14.7183L11.4823 16.0658ZM14.5958 15.339L14.1635 17.9978L11.9928 16.4065L14.5958 15.339ZM10.9764 16.3831L8.7781 17.9745L8.36883 15.311L10.9764 16.3831ZM6.3085 11.4703L4.46423 14.0008L0.794249 11.4703L4.46423 8.94098L6.3085 11.4703ZM4.9471 8.78931L7.60992 8.38449L6.53845 10.9605L4.9471 8.78931ZM6.56597 11.9766L7.63757 14.5795L4.97477 14.1478L6.56597 11.9766ZM8.36883 7.60167L8.80108 4.94399L10.9718 6.53533L8.36883 7.60167ZM11.9882 6.55748L14.1865 4.96617L14.5958 7.62499L11.9882 6.55748ZM15.3271 8.35651L17.9899 8.79401L16.4263 10.9593L15.3271 8.35651ZM16.4263 11.9813L18.0175 14.1478L15.3271 14.5795L16.4263 11.9813ZM16.6562 11.4703L18.5004 8.94098L22.1704 11.4703L18.5004 14.0008L16.6562 11.4703ZM18.252 8.29231L15.1385 7.79065L14.6649 4.7095L19.0431 3.91731L18.252 8.29231ZM15.9342 1.53499C16.9367 2.02265 17.8198 2.59314 18.6292 3.27798L18.8132 3.43898L14.789 4.1565L15.8192 1.48015L15.9342 1.53499ZM12.2089 0.633142C13.1886 0.701976 14.2003 0.914332 15.2029 1.25967L15.3178 1.29583L14.3061 3.95932L11.9652 0.615665L12.2089 0.633142ZM14.0163 4.433L11.4823 6.30081L8.94832 4.45632L11.4823 0.794142L14.0163 4.433ZM7.58238 1.30983C8.63553 0.914332 9.69334 0.679832 10.7327 0.610999L10.9718 0.592309L8.6402 3.97332L7.47202 1.35067L7.58238 1.30983ZM4.33543 3.27798C5.1311 2.61181 5.99572 2.05064 6.9063 1.60848L7.01667 1.55831L8.16187 4.16117L4.14702 3.43431L4.33543 3.27798ZM8.29977 4.70832L7.8261 7.81398L4.71262 8.29231L3.92162 3.91731L8.29977 4.70832ZM1.53928 7.023C2.02683 6.01967 2.5971 5.13649 3.28695 4.33149L3.44328 4.14364L4.16533 8.16749L1.4841 7.13267L1.53928 7.023ZM0.660899 10.7481C0.711416 9.73664 0.918499 8.71933 1.28635 7.7265L1.32777 7.61567L3.9859 8.65049L0.651683 10.9826L0.660899 10.7481ZM1.30933 15.339C0.932266 14.2855 0.706866 13.2273 0.637916 12.1925L0.619483 11.9533L3.9768 14.2808L1.35075 15.4533L1.30933 15.339ZM3.44328 18.7935L3.28695 18.6091C2.61542 17.8415 2.06813 16.9991 1.6129 16.0378L1.56227 15.9316L4.16533 14.7871L3.44328 18.7935ZM4.71262 14.6483L7.8261 15.15L8.29977 18.2323L3.92162 19.0233L4.71262 14.6483ZM7.03055 21.4056C6.02792 20.9133 5.14487 20.3428 4.33543 19.658L4.15155 19.5016L8.17563 18.7795L7.14547 21.4605L7.03055 21.4056ZM10.7557 22.3075C9.7715 22.234 8.76433 22.0263 7.7617 21.6821L7.64678 21.6448L8.65852 18.9813L10.9994 22.3215L10.7557 22.3075ZM8.94832 18.5076L11.4823 16.641L14.0163 18.4855L11.4823 22.1465L8.94832 18.5076ZM15.3822 21.6308C14.3291 22.0263 13.2713 22.2608 12.232 22.3308L11.9928 22.3483L14.3245 18.9685L15.4926 21.59L15.3822 21.6308ZM18.6292 19.658C17.9025 20.2926 17.0333 20.8538 16.0583 21.3321L15.948 21.3823L14.8028 18.7795L18.8085 19.5016L18.6292 19.658ZM14.6649 18.2323L15.1385 15.1231L18.252 14.6483L19.0431 19.0233L14.6649 18.2323ZM21.4253 15.9188C20.9379 16.921 20.3675 17.7995 19.6778 18.6091L19.5213 18.7935L18.7993 14.7731L21.4805 15.8033L21.4253 15.9188ZM22.3037 12.1925C22.2532 13.204 22.0461 14.2213 21.6783 15.2141L21.6369 15.325L18.9787 14.2901L22.3129 11.958L22.3037 12.1925ZM18.9878 8.65515L21.6139 7.48731L21.6553 7.60167C22.0324 8.65517 22.2578 9.71331 22.3267 10.7435L22.3451 10.9826L18.9878 8.65515Z" stroke="#7C6345" stroke-width="0.2"/>
</svg>
