<svg width="37" height="16" viewBox="0 0 37 16" fill="none" xmlns="http://www.w3.org/2000/svg">
<path d="M33.727 5.06H25.275C25.23 4.9175 25.177 4.775 25.117 4.64V4.6025C25.057 4.4675 24.997 4.3325 24.922 4.1975C24.562 3.4775 24.097 2.825 23.52 2.24L23.467 2.195C22.762 1.505 21.937 0.957496 21.022 0.567496L20.992 0.544996H20.94C19.057 -0.205034 16.9948 -0.167534 15.1949 0.574996L15.1574 0.582497C14.28 0.949997 13.4999 1.475 12.81 2.1575L12.7499 2.2175L12.7424 2.225C12.1724 2.81 11.7 3.47 11.3398 4.1975C11.2574 4.3475 11.1823 4.505 11.1148 4.6625L11.0925 4.6925V4.7525C11.055 4.85 11.0099 4.955 10.9799 5.06H2.5126C1.125 5.06 0 6.1925 0 7.5725C0 8.96 1.125 10.085 2.5126 10.085H10.9724C11.0174 10.22 11.07 10.355 11.1225 10.49L11.1298 10.5275C11.1899 10.67 11.2574 10.8125 11.3323 10.9475C11.685 11.66 12.1499 12.305 12.7124 12.89L12.7574 12.935L12.8023 12.965C13.5074 13.6475 14.325 14.1875 15.2398 14.5775C15.2548 14.5925 15.2773 14.6 15.2999 14.6C16.2 14.9675 17.1449 15.1475 18.105 15.1475C19.132 15.1475 20.122 14.945 21.052 14.555L21.09 14.5475C21.967 14.1725 22.755 13.6475 23.422 12.98C23.46 12.9575 23.49 12.935 23.512 12.8975C24.082 12.2975 24.555 11.645 24.9 10.9475C24.975 10.7975 25.042 10.6475 25.11 10.49L25.155 10.3775C25.192 10.28 25.23 10.1825 25.26 10.085H33.727C35.115 10.085 36.24 8.96 36.24 7.5725C36.24 6.1925 35.115 5.06 33.727 5.06ZM2.5125 5.81H10.7475C10.6395 6.2714 10.5871 6.742 10.5653 7.2111C10.4648 6.9049 10.2416 6.6408 9.9213 6.5074C9.4031 6.2905 8.8175 6.4866 8.5216 6.9405C8.4 6.7533 8.2235 6.5993 8.0023 6.5074C7.4839 6.2905 6.8985 6.4867 6.6026 6.9406C6.481 6.7533 6.3043 6.5993 6.0829 6.5074C5.7998 6.3887 5.4882 6.388 5.2051 6.5059C4.9848 6.5965 4.8195 6.7634 4.6939 6.9604C4.5723 6.7646 4.3927 6.6024 4.164 6.5074C3.8806 6.3887 3.5689 6.388 3.2862 6.5059C3.0659 6.5965 2.9006 6.7631 2.775 6.9601C2.6532 6.7644 2.4738 6.6023 2.2451 6.5073C1.7568 6.3029 1.2107 6.4676 0.9015 6.8666C1.1759 6.2473 1.7959 5.81 2.5125 5.81ZM10.1931 7.8623C10.0298 8.2549 9.5764 8.4409 9.1842 8.2783C8.7913 8.1142 8.6045 7.6623 8.7682 7.269C8.8912 6.9731 9.1791 6.7937 9.4816 6.7937C9.5805 6.7937 9.6805 6.8127 9.7771 6.853C10.17 7.0171 10.3564 7.4698 10.1931 7.8623ZM8.2741 7.8623C8.195 8.0527 8.0463 8.2007 7.8559 8.279C7.6644 8.3566 7.4553 8.3566 7.2652 8.2783C7.0748 8.1985 6.9265 8.0505 6.8481 7.8601C6.7694 7.6697 6.7697 7.4595 6.84921 7.269C6.97221 6.9731 7.2601 6.7937 7.5626 6.7937C7.6615 6.7937 7.7615 6.8127 7.8581 6.853C8.2507 7.0171 8.4375 7.469 8.2741 7.8623ZM6.3548 7.8623C6.2757 8.0527 6.1274 8.2007 5.9366 8.279C5.7462 8.3566 5.5367 8.3566 5.3463 8.2783C5.1559 8.1985 5.0076 8.0505 4.9292 7.8601C4.8505 7.6697 4.8508 7.4595 4.9303 7.269C5.0094 7.0786 5.1577 6.9306 5.3485 6.8523C5.4433 6.8135 5.543 6.7937 5.6426 6.7937C5.7429 6.7937 5.8433 6.8135 5.9389 6.853C6.1293 6.9328 6.2776 7.0808 6.356 7.2712C6.4347 7.4617 6.43431 7.6719 6.3548 7.8623ZM4.4359 7.8623C4.2726 8.2549 3.8192 8.4409 3.427 8.2783C3.0344 8.1142 2.8477 7.6623 3.011 7.269C3.0901 7.0786 3.2388 6.9306 3.4292 6.8523C3.5244 6.8135 3.624 6.7937 3.7236 6.7937C3.8239 6.7937 3.92431 6.8135 4.01991 6.853C4.21031 6.9328 4.3586 7.0808 4.437 7.2712C4.5157 7.4617 4.5154 7.6719 4.4359 7.8623ZM2.5169 7.8623C2.3536 8.2549 1.8998 8.4409 1.508 8.2783C1.1154 8.1142 0.9287 7.6623 1.092 7.269C1.215 6.9731 1.5029 6.7937 1.8054 6.7937C1.9043 6.7937 2.0043 6.8127 2.1009 6.853C2.2913 6.9328 2.4396 7.0808 2.518 7.2712C2.5968 7.4617 2.5964 7.6719 2.5169 7.8623ZM2.5125 9.335C1.7806 9.335 1.1489 8.8836 0.884 8.242C1.0034 8.4051 1.164 8.541 1.3637 8.624C1.5073 8.6841 1.6563 8.7126 1.8028 8.7126C2.1864 8.7126 2.544 8.5102 2.7575 8.1799C2.8793 8.3718 3.0574 8.5304 3.2826 8.624C3.4262 8.6841 3.5752 8.7126 3.7217 8.7126C4.1053 8.7126 4.46311 8.5101 4.67661 8.1798C4.79841 8.3718 4.9765 8.5304 5.2019 8.624C5.344 8.6833 5.4934 8.7126 5.6425 8.7126C5.7904 8.7126 5.9388 8.684 6.0798 8.6254C6.3001 8.5348 6.4654 8.3679 6.591 8.1709C6.7126 8.3667 6.8922 8.5289 7.1209 8.6239C7.263 8.6832 7.4124 8.7125 7.5615 8.7125C7.7094 8.7125 7.8578 8.6839 7.9988 8.6253C8.2191 8.5347 8.3844 8.3681 8.51 8.1711C8.6318 8.3668 8.8112 8.5289 9.0399 8.6239C9.1835 8.684 9.3325 8.7125 9.479 8.7125C9.9287 8.7125 10.3561 8.4459 10.5395 8.0057C10.551 7.9778 10.556 7.9491 10.5651 7.9209C10.5867 8.3987 10.6393 8.8724 10.7475 9.3348L2.5125 9.335ZM23.122 5.06L23.272 4.1975L23.46 3.1775C23.715 3.5 23.955 3.8375 24.157 4.1975C24.225 4.3175 24.292 4.445 24.352 4.5725L23.257 5.06L23.107 5.1275L23.122 5.06ZM18.81 10.085L18.12 10.37L17.43 10.085L16.1325 9.5525L16.0424 9.335L15.3074 7.565L16.0349 5.81L16.1325 5.5775L17.3924 5.06L18.12 4.76L18.847 5.06L20.107 5.5775L20.205 5.81L20.932 7.565L20.197 9.335L20.107 9.5525L18.81 10.085ZM19.935 10.355L19.837 10.9475L19.747 11.5175L18.967 10.9475L18.795 10.82L19.935 10.355ZM17.445 10.805L17.25 10.9475L16.485 11.495L16.4024 10.9475L16.305 10.3325L17.445 10.805ZM14.5499 7.565L13.515 8.9825L11.46 7.565L13.515 6.1475L14.5499 7.565ZM14.1674 5.945L15.0751 5.81L15.33 5.7725L15.315 5.81L14.8649 6.89L14.1674 5.945ZM14.8799 8.24L15.33 9.335L15.345 9.3725L15.1125 9.335L14.1825 9.185L14.8799 8.24ZM16.3125 4.775L16.4024 4.1975L16.5 3.6125L17.3024 4.1975L17.4525 4.31L16.3125 4.775ZM18.795 4.325L18.975 4.1975L19.762 3.635L19.845 4.1975L19.935 4.7975L18.795 4.325ZM20.895 5.7575L21.225 5.81L22.065 5.945L21.375 6.89L20.917 5.81L20.895 5.7575ZM20.91 9.335L21.382 8.2325L22.08 9.185L21.135 9.335L20.895 9.3725L20.91 9.335ZM21.697 7.565L22.732 6.1475L24.78 7.565L22.732 8.9825L21.697 7.565ZM22.597 4.1975L22.44 5.06L22.395 5.3L20.88 5.06L20.647 5.0225L20.52 4.1975L20.385 3.2975L22.837 2.855L22.597 4.1975ZM21.037 1.295C21.577 1.565 22.065 1.8725 22.507 2.2325L20.542 2.585L21.037 1.295ZM20.4 1.0475L19.912 2.315L18.78 0.694996C19.312 0.754996 19.86 0.867496 20.4 1.0475ZM18.12 0.912497L19.537 2.945L18.12 3.995L16.71 2.96L18.12 0.912497ZM17.4525 0.679996L16.305 2.345L15.735 1.0775C16.305 0.867496 16.8825 0.739996 17.4525 0.679996ZM15.1274 1.34L15.6824 2.585L13.7325 2.2325C14.1749 1.8875 14.64 1.5875 15.1274 1.34ZM15.8624 3.2975L15.7199 4.1975L15.5925 5.0375L15.45 5.06L13.8524 5.3075L13.8074 5.06L13.6499 4.1975L13.4098 2.855L15.8624 3.2975ZM12.0974 4.1975C12.2999 3.8375 12.5325 3.5 12.7873 3.185L12.9675 4.1975L13.125 5.06L13.14 5.15L12.9075 5.06L11.8426 4.655C11.9249 4.4975 12.0075 4.3475 12.0974 4.1975ZM11.4525 5.81C11.4975 5.63 11.5499 5.4575 11.61 5.2775L12.885 5.7725L12.8324 5.81L11.2575 6.9125C11.2873 6.545 11.3549 6.1775 11.4525 5.81ZM11.445 9.335C11.3474 8.96 11.28 8.5925 11.2425 8.2175L12.8474 9.335L12.8924 9.365L11.6249 9.9275C11.5574 9.725 11.4975 9.52999 11.445 9.335ZM13.125 10.085L12.9675 10.9475L12.7873 11.9525C12.5249 11.6375 12.2999 11.3075 12.0974 10.9475C12.03 10.82 11.9625 10.6925 11.8949 10.5575L12.9525 10.085L13.14 10.0025L13.125 10.085ZM13.6499 10.9475L13.8074 10.085L13.8524 9.8225L15.4573 10.085L15.5924 10.1075L15.7273 10.9475L15.8622 11.8325L13.4097 12.275L13.6499 10.9475ZM15.21 13.835C14.6623 13.565 14.1824 13.2575 13.7325 12.8975L15.7049 12.545L15.21 13.835ZM15.8474 14.0825L16.3275 12.815L17.46 14.435C16.935 14.3825 16.3875 14.2625 15.8474 14.0825ZM16.71 12.185L18.12 11.135L19.537 12.17L18.12 14.2175L16.71 12.185ZM18.795 14.45L19.942 12.785L20.505 14.0525C19.935 14.2625 19.357 14.39 18.795 14.45ZM21.112 13.79L20.565 12.545L22.515 12.8975C22.102 13.2275 21.637 13.5275 21.112 13.79ZM20.385 11.8325L20.52 10.9475L20.647 10.0925L20.692 10.085L22.395 9.8225L22.44 10.085L22.597 10.9475L22.837 12.275L20.385 11.8325ZM24.142 10.9475C23.94 11.3 23.715 11.6375 23.46 11.945L23.28 10.9475L23.122 10.085L23.107 9.98L23.377 10.085L24.397 10.475C24.315 10.64 24.232 10.7975 24.142 10.9475ZM24.795 9.335C24.75 9.50749 24.69 9.68 24.63 9.8525L23.355 9.3575L23.385 9.335L24.982 8.2175C24.96 8.5925 24.892 8.96749 24.795 9.335ZM23.415 5.81L23.347 5.765L24.615 5.2025C24.69 5.405 24.75 5.6075 24.795 5.81C24.9 6.1775 24.96 6.545 24.997 6.905L23.415 5.81ZM33.727 5.81C34.538 5.81 35.221 6.3714 35.423 7.122C35.311 6.8537 35.097 6.6276 34.808 6.5074C34.525 6.3895 34.214 6.388 33.93 6.5059C33.71 6.5965 33.545 6.7633 33.419 6.9605C33.297 6.7647 33.118 6.6024 32.889 6.5074C32.606 6.3887 32.294 6.388 32.011 6.5059C31.791 6.5965 31.626 6.7634 31.5 6.9604C31.378 6.7646 31.199 6.6024 30.97 6.5074C30.452 6.2905 29.866 6.4866 29.57 6.9403C29.449 6.7532 29.272 6.5993 29.051 6.5074C28.533 6.2905 27.947 6.4866 27.651 6.9405C27.53 6.7534 27.353 6.5995 27.132 6.5074C26.574 6.2739 25.941 6.5209 25.673 7.0513C25.644 6.6309 25.594 6.2153 25.492 5.8101L33.727 5.81ZM35.08 7.8623C35.001 8.0527 34.852 8.2007 34.661 8.279C34.471 8.3566 34.261 8.3566 34.071 8.2783C33.881 8.1985 33.732 8.0505 33.654 7.8601C33.575 7.6697 33.576 7.4595 33.655 7.269C33.734 7.0786 33.883 6.9306 34.073 6.8523C34.168 6.8135 34.268 6.7937 34.367 6.7937C34.468 6.7937 34.568 6.8135 34.664 6.853C34.854 6.9328 35.002 7.0808 35.081 7.2712C35.159 7.4617 35.159 7.6719 35.08 7.8623ZM33.161 7.8623C33.082 8.0527 32.933 8.2007 32.742 8.279C32.552 8.3566 32.342 8.3566 32.152 8.2783C31.962 8.1985 31.813 8.0505 31.735 7.8601C31.656 7.6697 31.657 7.4595 31.736 7.269C31.815 7.0786 31.964 6.9306 32.154 6.8523C32.249 6.8135 32.349 6.7937 32.448 6.7937C32.549 6.7937 32.649 6.8135 32.745 6.853C32.935 6.9328 33.083 7.0808 33.162 7.2712C33.241 7.4617 33.24 7.6719 33.161 7.8623ZM31.242 7.8623C31.078 8.2549 30.625 8.4409 30.233 8.2783C29.84 8.1142 29.654 7.6623 29.817 7.269C29.94 6.9731 30.228 6.7937 30.53 6.7937C30.629 6.7937 30.729 6.8127 30.826 6.853C31.016 6.9328 31.164 7.0808 31.243 7.2712C31.322 7.4617 31.321 7.6719 31.242 7.8623ZM29.323 7.8623C29.159 8.2549 28.706 8.4409 28.314 8.2783C27.921 8.1142 27.735 7.6616 27.898 7.269C28.021 6.9731 28.309 6.7937 28.611 6.7937C28.71 6.7937 28.81 6.8127 28.907 6.853C29.3 7.0171 29.486 7.469 29.323 7.8623ZM27.404 7.8623C27.241 8.2549 26.787 8.4409 26.395 8.2783C26.205 8.1985 26.056 8.0505 25.978 7.8601C25.899 7.6697 25.899 7.4595 25.979 7.269C26.102 6.9731 26.39 6.7937 26.692 6.7937C26.791 6.7937 26.891 6.8127 26.988 6.853C27.381 7.0171 27.567 7.4698 27.404 7.8623ZM33.727 9.335H25.485C25.586 8.9185 25.64 8.4978 25.671 8.0764C25.789 8.3143 25.986 8.5143 26.251 8.6241C26.394 8.6842 26.543 8.7127 26.69 8.7127C27.073 8.7127 27.431 8.5102 27.645 8.18C27.766 8.3718 27.944 8.5303 28.17 8.6241C28.313 8.6842 28.462 8.7127 28.609 8.7127C28.992 8.7127 29.35 8.5103 29.563 8.18C29.685 8.3719 29.863 8.5305 30.089 8.6241C30.232 8.6842 30.381 8.7127 30.528 8.7127C30.911 8.7127 31.269 8.5102 31.483 8.1799C31.604 8.3719 31.782 8.5305 32.008 8.6241C32.15 8.6834 32.299 8.7127 32.448 8.7127C32.596 8.7127 32.744 8.6841 32.885 8.6255C33.106 8.5349 33.271 8.3681 33.397 8.1709C33.519 8.3667 33.698 8.529 33.927 8.624C34.069 8.6833 34.218 8.7126 34.367 8.7126C34.515 8.7126 34.664 8.684 34.805 8.6254C35.088 8.5089 35.309 8.2885 35.426 8.0058C35.44 7.9734 35.446 7.94 35.456 7.9072C35.298 8.7213 34.581 9.335 33.727 9.335Z" fill="#7C6345"/>
</svg>
