<svg width="37" height="16" viewBox="0 0 37 16" fill="none" xmlns="http://www.w3.org/2000/svg">
<path d="M33.7275 5.05997H25.275C25.23 4.91747 25.1776 4.77497 25.1175 4.63997V4.60247C25.0574 4.46747 24.9974 4.33247 24.9225 4.19747C24.5625 3.47747 24.0974 2.82497 23.5199 2.23997L23.4673 2.19497C22.7548 1.50497 21.9375 0.957474 21.0225 0.567474L20.9925 0.544974H20.9399C19.0574 -0.205026 16.9949 -0.167527 15.195 0.574973L15.1575 0.582474C14.2726 0.949974 13.5 1.47497 12.8099 2.15747L12.7425 2.22497C12.1725 2.80997 11.6923 3.46997 11.3398 4.19747C11.2574 4.34747 11.1824 4.50497 11.115 4.66247L11.0923 4.69247V4.75247C11.0549 4.84997 11.0099 4.95497 10.9799 5.05997H2.5124C1.125 5.05997 0 6.18497 0 7.57247C0 8.95997 1.125 10.085 2.5124 10.085H10.9724C11.0174 10.22 11.07 10.355 11.1224 10.49L11.1299 10.5275C11.19 10.67 11.2575 10.8125 11.3324 10.9475C11.6849 11.66 12.15 12.305 12.7125 12.89L12.7575 12.935L12.8025 12.965C13.5075 13.6475 14.3173 14.1875 15.24 14.5775C15.2548 14.5925 15.2774 14.6 15.2999 14.6C16.1924 14.9675 17.1449 15.1475 18.1049 15.1475C19.1325 15.1475 20.1224 14.945 21.0525 14.555L21.0898 14.5475C21.9672 14.1725 22.7549 13.6475 23.4225 12.98C23.46 12.9575 23.4901 12.935 23.5049 12.8975C24.0824 12.2975 24.555 11.645 24.9 10.9475C24.9751 10.7975 25.0425 10.6475 25.11 10.49L25.1475 10.3775C25.1849 10.28 25.2224 10.1825 25.2524 10.085H33.7274C35.115 10.085 36.24 8.95997 36.24 7.57247C36.2401 6.18497 35.1151 5.05997 33.7275 5.05997ZM2.5124 9.33497C1.5449 9.33497 0.75 8.54747 0.75 7.57247C0.75 6.59747 1.5449 5.80997 2.5124 5.80997H10.7474C10.6125 6.38747 10.5449 6.97997 10.5449 7.56497C10.5449 8.16497 10.6125 8.75747 10.7474 9.33497H2.5124ZM23.1224 5.05997L23.2725 4.19747L23.46 3.17747C23.7149 3.49997 23.9549 3.83747 24.1574 4.19747C24.225 4.31747 24.2923 4.44497 24.3524 4.57247L23.2574 5.05997L23.1073 5.12747L23.1224 5.05997ZM18.8099 10.085L18.12 10.37L17.4301 10.085L16.1326 9.55247L16.0425 9.33497L15.3075 7.56497L16.0349 5.80997L16.1326 5.57747L17.3925 5.05997L18.12 4.75997L18.8474 5.05997L20.1074 5.57747L20.205 5.80997L20.9325 7.56497L20.1975 9.33497L20.1074 9.55247L18.8099 10.085ZM19.9349 10.355L19.8375 10.9475L19.7474 11.5175L18.9674 10.9475L18.7949 10.82L19.9349 10.355ZM17.445 10.805L17.25 10.9475L16.485 11.495L16.4023 10.9475L16.305 10.3325L17.445 10.805ZM14.5499 7.56497L13.5148 8.98247L11.46 7.56497L13.5148 6.14747L14.5499 7.56497ZM14.1674 5.94497L15.0749 5.80997L15.33 5.77247L15.3149 5.80997L14.8651 6.88997L14.1674 5.94497ZM14.8799 8.23997L15.33 9.33497L15.345 9.37247L15.1125 9.33497L14.1825 9.18497L14.8799 8.23997ZM16.3125 4.77497L16.4023 4.19747L16.5 3.61247L17.3026 4.19747L17.4524 4.30997L16.3125 4.77497ZM18.7949 4.32497L18.9751 4.19747L19.7549 3.63497L19.845 4.19747L19.9349 4.79747L18.7949 4.32497ZM20.8949 5.75747L21.225 5.80997L22.0649 5.94497L21.375 6.88997L20.9174 5.80997L20.8949 5.75747ZM20.9099 9.33497L21.3825 8.23247L22.0799 9.18497L21.1349 9.33497L20.8948 9.37247L20.9099 9.33497ZM21.6975 7.56497L22.7324 6.14747L24.7726 7.56497L22.7324 8.98247L21.6975 7.56497ZM22.5974 4.19747L22.4399 5.05997L22.3949 5.29997L20.8799 5.05997L20.6475 5.02247L20.5199 4.19747L20.385 3.29747L22.8375 2.85497L22.5974 4.19747ZM21.0376 1.29497C21.5774 1.56497 22.065 1.87247 22.5076 2.23247L20.5425 2.58497L21.0376 1.29497ZM20.4 1.04747L19.9126 2.31497L18.7726 0.694973C19.3125 0.754973 19.86 0.867473 20.4 1.04747ZM18.1198 0.912474L19.5375 2.94497L18.1198 3.99497L16.71 2.95997L18.1198 0.912474ZM17.4523 0.679974L16.305 2.34497L15.735 1.07747C16.305 0.867474 16.8825 0.739974 17.4523 0.679974ZM15.1274 1.33997L15.6825 2.58497L13.7324 2.23247C14.1749 1.88747 14.6397 1.58747 15.1274 1.33997ZM15.8624 3.29747L15.7199 4.19747L15.5923 5.03747L15.4498 5.05997L13.8524 5.30747L13.8073 5.05997L13.6498 4.19747L13.4098 2.85497L15.8624 3.29747ZM12.0974 4.19747C12.2999 3.83747 12.5325 3.49997 12.7875 3.18497L12.9673 4.19747L13.125 5.05997L13.1398 5.14997L12.9074 5.05997L11.8423 4.65497C11.9249 4.49747 12.0075 4.34747 12.0974 4.19747ZM11.4523 5.80997C11.4973 5.62997 11.5499 5.45747 11.61 5.27747L12.885 5.77247L12.8324 5.80997L11.2575 6.91247C11.2876 6.54497 11.3549 6.17747 11.4523 5.80997ZM11.445 9.33497C11.3474 8.95997 11.2798 8.59247 11.2425 8.21747L12.8474 9.33497L12.8924 9.36497L11.6249 9.92747C11.5574 9.72497 11.4974 9.52997 11.445 9.33497ZM13.125 10.085L12.9673 10.9475L12.7875 11.9525C12.5249 11.6375 12.2999 11.3075 12.0974 10.9475C12.0225 10.82 11.9625 10.6925 11.8949 10.5575L12.9523 10.085L13.1398 10.0025L13.125 10.085ZM13.65 10.9475L13.8075 10.085L13.8525 9.82247L15.4574 10.085L15.5923 10.1075L15.7274 10.9475L15.8622 11.8325L13.4098 12.275L13.65 10.9475ZM15.21 13.835C14.6625 13.565 14.1824 13.2575 13.7323 12.8975L15.7049 12.545L15.21 13.835ZM15.8474 14.0825L16.3273 12.815L17.46 14.435C16.9349 14.3825 16.3799 14.2625 15.8474 14.0825ZM16.71 12.185L18.1198 11.135L19.5375 12.17L18.1198 14.2175L16.71 12.185ZM18.7949 14.45L19.9424 12.785L20.5049 14.0525C19.9349 14.2625 19.3574 14.39 18.7949 14.45ZM21.1124 13.79L20.5649 12.545L22.5148 12.8975C22.1025 13.2275 21.6299 13.5275 21.1124 13.79ZM20.385 11.8325L20.5199 10.9475L20.6475 10.0925L20.6924 10.085L22.3949 9.82247L22.4399 10.085L22.5974 10.9475L22.8375 12.275L20.385 11.8325ZM24.1425 10.9475C23.94 11.3 23.7149 11.6375 23.4601 11.945L23.2726 10.9475L23.1225 10.085L23.1075 9.97997L23.3776 10.085L24.3977 10.475C24.315 10.64 24.2324 10.7975 24.1425 10.9475ZM24.7876 9.33497C24.7426 9.50747 24.69 9.67997 24.6299 9.85247L23.3549 9.35747L23.3849 9.33497L24.9823 8.21747C24.96 8.59247 24.8925 8.96747 24.7876 9.33497ZM23.415 5.80997L23.3474 5.76497L24.615 5.20247C24.6899 5.40497 24.7499 5.60747 24.7948 5.80997C24.8999 6.17747 24.96 6.54497 24.9973 6.90497L23.415 5.80997ZM33.7275 9.33497H25.485C25.6275 8.74997 25.7023 8.15747 25.7023 7.56497C25.7023 6.96497 25.6349 6.37997 25.4925 5.80997H33.7275C34.695 5.80997 35.4901 6.59747 35.4901 7.57247C35.4901 8.54747 34.695 9.33497 33.7275 9.33497Z" fill="#7C6345"/>
</svg>
