<svg width="41" height="15" viewBox="0 0 41 15" fill="none" xmlns="http://www.w3.org/2000/svg">
<path d="M40.83 6.82022C40.8396 6.75725 40.8396 6.69318 40.83 6.63021C40.6994 5.99033 40.353 5.4147 39.8488 4.99966C39.3445 4.58462 38.7131 4.35536 38.06 4.35022L21.31 4.3002V4.22021C21.1949 3.36692 20.857 2.55902 20.3304 1.87786C19.8037 1.19671 19.1069 0.666345 18.31 0.340206C17.5454 0.0361445 16.7158 -0.0671216 15.9 0.0402183C15.0819 0.147599 14.3043 0.460693 13.64 0.950222C12.9755 1.44189 12.4486 2.09617 12.11 2.85022C12.11 2.85022 12.11 2.85021 12.11 2.91021L2.45 4.19021C1.80496 4.27587 1.20914 4.5812 0.762894 5.05478C0.316643 5.52835 0.0472212 6.14123 0 6.79022C0 6.88022 0 6.9702 0 7.0502C0 7.0502 0 7.16021 0 7.22021V7.4302C0.0907778 8.04554 0.374371 8.61624 0.809998 9.06021C1.06889 9.33018 1.38259 9.54158 1.73 9.6802C2.07233 9.82287 2.43914 9.89759 2.81 9.9002L19.56 9.95022V10.0002C19.6964 11.0513 20.1726 12.0289 20.9162 12.7842C21.6597 13.5395 22.6297 14.031 23.6785 14.1839C24.7272 14.3368 25.7972 14.1427 26.7254 13.6311C27.6537 13.1196 28.3892 12.3186 28.82 11.3502L38.49 10.0602C38.8614 10.0133 39.22 9.8935 39.5449 9.70758C39.8699 9.52165 40.1548 9.27333 40.3835 8.97686C40.6121 8.6804 40.7798 8.34164 40.8771 7.9801C40.9743 7.61856 40.9991 7.24136 40.95 6.8702C40.9138 6.8455 40.873 6.8285 40.83 6.82022ZM32.27 5.1802L27.56 5.81021C27.2841 5.5648 26.9824 5.35022 26.66 5.17022L32.27 5.1802ZM24.58 11.0802H24.52H24.46L23.25 10.7502L22.8 9.98022L22.58 9.60022L22.71 9.13021L22.92 8.3302L24.07 7.67022L25.35 8.01022L25.99 9.14022L25.77 9.98022L25.66 10.4202L24.58 11.0802ZM25.64 10.7902V10.9402V11.6902L24.85 11.2602L25.34 10.9802L25.64 10.7902ZM24.26 11.3302L23.61 11.9402L23.41 11.2302L23.36 11.0902L23.75 11.1902L24.26 11.3302ZM22.43 9.9302V10.0002L22.86 10.7402H21.97L22.36 10.0302L22.43 9.9302ZM22.14 9.1502L21.73 8.73022L22.59 8.48022L22.41 9.1502L22.35 9.3602L22.14 9.1502ZM25 6.1502V6.29022L24.89 6.17022L24.18 5.4002C24.5157 5.39077 24.8514 5.42098 25.18 5.4902L25 6.1502ZM25.31 6.1502L25.44 5.6102C25.7583 5.69776 26.0617 5.83262 26.34 6.01022L25.2 6.38021L25.31 6.1502ZM25.23 7.75021L24.32 7.51022L24.79 7.07022L24.98 6.89022V7.04022L25.23 7.75021ZM24.51 6.25021L24.85 6.6202L24.31 7.14022L24.03 7.4002L23.68 7.22021L23.03 6.8702L23.26 6.42022L23.74 5.47021L24.51 6.25021ZM23.76 7.5802L22.95 8.04022V7.31021V7.1502L23.19 7.28021L23.76 7.5802ZM23.37 5.5802L22.9 6.50021L22.82 6.66021L22.73 6.53021L22.38 5.95022C22.6724 5.75987 22.9884 5.60858 23.32 5.50021L23.37 5.5802ZM26.07 10.0902L26.23 9.51022L26.79 10.0902L26.85 10.1502L25.98 10.4102L26.07 10.0902ZM25.68 8.14022H26.58L26.16 8.92022L25.68 8.14022ZM25.54 7.84021L25.3 7.04022L25.22 6.76022L26.7 6.28021L26.75 6.3302V6.85022L26.69 7.85022L25.54 7.84021ZM27.82 7.5802C27.9909 7.89501 28.1187 8.23135 28.2 8.5802L27.11 8.03021L27.82 7.5802ZM26.97 7.75021V6.82022V6.56021L27.19 6.78021L27.32 6.9302C27.4255 7.05691 27.5224 7.19053 27.61 7.3302L26.97 7.75021ZM21.29 5.2402H21.94C21.6931 5.36652 21.4616 5.52089 21.25 5.70022C21.2672 5.52043 21.2638 5.33925 21.24 5.16021L21.29 5.2402ZM21.4 6.70022C21.6237 6.47349 21.8719 6.27226 22.14 6.10022L22.43 6.57022L22.57 6.81021L21.37 6.7402L21.4 6.70022ZM21.13 7.0202H21.41L22.69 7.0802V8.2102L21.59 8.53021L21.11 7.0502C21.11 7.0502 21.06 7.00021 21.08 6.94021L21.13 7.0202ZM21.26 8.53021L20.45 8.3302C20.4991 8.15383 20.5662 7.98297 20.65 7.82022C20.716 7.65998 20.7963 7.506 20.89 7.3602L21.26 8.53021ZM21.19 8.8002L20.73 9.22021L20.29 9.63021C20.2801 9.49373 20.2801 9.3567 20.29 9.22021C20.2997 9.01439 20.3298 8.81003 20.38 8.6102L21.19 8.8002ZM20.35 5.8002L19.55 5.6102L19.97 5.22021L20.44 4.78021C20.44 4.93021 20.44 5.08021 20.44 5.22021C20.4056 5.39334 20.3588 5.56379 20.3 5.73022L20.35 5.8002ZM20.42 4.38021L19.53 5.1802L19.25 5.4302L19.01 5.1802L18.47 4.6202L18.63 4.3302L19.02 3.6202L20.4 4.34021L20.42 4.38021ZM14.59 5.4602L15.05 6.26022H14.17L14.59 5.4602ZM14.51 4.9002L13.99 4.3602L13.89 4.25021L14.74 4.01022L14.65 4.3602L14.51 4.9002ZM15.2 6.57022L15.45 7.41021L15.51 7.6502L14.02 8.13021V7.63021L14.07 6.56021L15.2 6.57022ZM15.77 8.04022L15.92 8.20022L16.59 8.92022C16.2546 8.93787 15.9183 8.91095 15.59 8.84021L15.74 8.22021L15.77 8.04022ZM15.52 6.6202L16.41 6.85022L15.89 7.35022L15.77 7.47021V7.3702L15.52 6.6202ZM15.42 8.2702L15.3 8.7702C15.0031 8.68488 14.7201 8.5569 14.46 8.39022L14.34 8.32022L15.49 7.9602L15.42 8.2702ZM16.27 8.1502L15.9 7.75021L16.37 7.28021L16.72 6.9602L17.13 7.1802L17.71 7.50021L17.46 7.9902L16.99 8.91021L16.27 8.1502ZM16.98 6.79022L17.79 6.3302V7.10022V7.2102L17.62 7.1202L16.98 6.79022ZM17.37 8.79022L17.81 7.92022L17.92 7.7102L18.03 7.89022L18.35 8.42022C18.0238 8.57777 17.6771 8.68884 17.32 8.75021L17.37 8.79022ZM16.67 6.6102L15.4 6.26022L14.76 5.17022L14.97 4.3702L15.11 3.89022L16.11 3.3002L16.24 3.22021H16.39L17.52 3.53021L17.99 4.34021L18.18 4.67022L18.05 5.19021L17.84 5.94021L16.67 6.6102ZM15.11 3.4902V3.39022V2.6102L15.89 3.04022L15.33 3.3602L15.11 3.4902ZM16.48 2.97021L17.13 2.35022L17.35 3.09021V3.20022L17.06 3.13021L16.48 2.97021ZM17.84 3.56021H18.73L18.32 4.31021L17.84 3.56021ZM18.32 5.1802L18.38 4.9302L18.63 5.1802L19 5.57022L18.14 5.82022L18.32 5.1802ZM20.32 3.9902L19.23 3.4302L19.94 3.00021C20.1059 3.31519 20.2271 3.65177 20.3 4.00021L20.32 3.9902ZM19.15 1.9902C19.2771 2.10687 19.3941 2.23399 19.5 2.3702C19.6087 2.4944 19.7058 2.62828 19.79 2.7702L19.1 3.20022L19.15 1.9902ZM18.87 1.76022L18.81 3.31021H17.66L17.6 3.1102L17.36 2.28021V2.23022L18.84 1.75021L18.87 1.76022ZM18.53 1.5202L17.37 1.88021L17.56 1.09021C17.8917 1.17065 18.2112 1.29508 18.51 1.4602L18.53 1.5202ZM17.28 1.01022L17.09 1.81021L16.27 0.920223C16.602 0.908288 16.9342 0.935123 17.26 1.00021L17.28 1.01022ZM15.92 0.940212L16.97 2.09021L16.71 2.34021L16.15 2.89022L15.46 2.51022L15.15 2.34021L15.86 0.950222L15.92 0.940212ZM15.5 1.0202L14.93 2.00021L14.48 1.29022C14.7993 1.1504 15.1355 1.05289 15.48 1.00021L15.5 1.0202ZM14.27 1.53021L14.69 2.2402L13.49 2.1802C13.712 1.91208 13.9674 1.67349 14.25 1.47021L14.27 1.53021ZM13.27 2.4602L14.83 2.53021V2.59021V3.45022V3.67022L13.73 3.9902L13.61 3.6102L13.34 2.79022L13.25 2.50021L13.27 2.4602ZM12.6 3.7402C12.6529 3.57628 12.7164 3.41596 12.79 3.26022C12.8533 3.11196 12.9268 2.96826 13.01 2.8302L13.26 3.6502L13.36 3.9602L12.56 3.7702L12.6 3.7402ZM12.49 4.34021C12.4802 4.24044 12.4802 4.13998 12.49 4.04022L13.29 4.23022L13.17 4.35022L12.4 5.07022C12.3817 4.80583 12.3985 4.54018 12.45 4.28021L12.49 4.34021ZM12.49 5.45022L12.74 5.22021L13.65 4.4002L14.43 5.22021L13.89 6.22021L12.49 5.50021V5.45022ZM12.58 5.8302L13.65 6.38021L12.94 6.81021C12.7417 6.48892 12.5965 6.13774 12.51 5.7702L12.58 5.8302ZM13.79 6.64022V7.64022V7.84021L13.61 7.66021C13.4318 7.4817 13.2742 7.2838 13.14 7.07022L13.79 6.64022ZM0.790009 7.34021C0.72691 6.81371 0.870274 6.28323 1.19 5.8602C1.51073 5.43892 1.98542 5.16203 2.50999 5.09021L11.76 3.8602C11.76 4.0202 11.7 4.18022 11.68 4.35022C11.6499 4.62941 11.6499 4.91102 11.68 5.19021C11.7299 6.12431 12.0495 7.02392 12.6 7.78021L2.92 9.00021C2.46453 9.06062 2.00216 8.96237 1.61061 8.72198C1.21906 8.48159 0.92223 8.11371 0.770004 7.6802L0.720001 7.4902V7.34021H0.790009ZM8.59 9.17022L13.28 8.5502C13.5619 8.79249 13.8667 9.00685 14.19 9.19021L8.59 9.17022ZM19.51 9.17022H18.81C19.07 9.02799 19.3176 8.86405 19.55 8.6802C19.4905 8.83027 19.4404 8.98393 19.4 9.14022L19.51 9.17022ZM19.32 7.72021C19.1186 7.92473 18.8975 8.10894 18.66 8.2702L18.4 7.84021L18.23 7.56021L19.43 7.6202L19.32 7.72021ZM19.68 7.34021H19.39L18.11 7.28021V6.10022L19.21 5.78021L19.69 7.2702L19.68 7.34021ZM19.54 5.84021L20.35 6.03021C20.2477 6.38136 20.0998 6.71756 19.91 7.03021L19.54 5.84021ZM20.37 9.9302L21.21 9.1802L21.54 8.88021L21.82 9.1802L22.32 9.70022L22.14 10.0302L21.78 10.6902L20.46 10.0202H20.37V9.9302ZM20.46 10.3402L21.53 10.8902L20.82 11.3202C20.6199 11.0055 20.4619 10.666 20.35 10.3102L20.46 10.3402ZM21.62 12.3402C21.3742 12.1096 21.1561 11.8512 20.97 11.5702L21.68 11.1402L21.62 12.3402ZM21.89 12.5902L21.83 11.0002H22.97L23.04 11.2402L23.28 12.0702L21.78 12.5502L21.89 12.5902ZM22.24 12.8202L23.4 12.4502L23.2 13.2702C22.8232 13.164 22.4631 13.0058 22.13 12.8002L22.24 12.8202ZM23.49 13.3302L23.67 12.5302L24.49 13.4202C24.1168 13.4332 23.7434 13.3962 23.38 13.3102L23.49 13.3302ZM24.87 13.4002L23.81 12.2402L24.02 12.0302L24.62 11.4402L25.38 11.8502L25.62 11.9802L24.89 13.3902L24.87 13.4002ZM25.28 13.3202L25.82 12.2302L26.26 12.9502C25.9139 13.1149 25.5473 13.2326 25.17 13.3002L25.28 13.3202ZM26.51 12.8002L26.07 12.1002L27.28 12.1502C27.0166 12.3991 26.7205 12.611 26.4 12.7802L26.51 12.8002ZM27.51 11.8802L25.93 11.8102V10.9502V10.6902L27.02 10.3802L27.15 10.7902L27.41 11.6102L27.5 11.8702C27.5 11.8702 27.43 11.8502 27.42 11.8602L27.51 11.8802ZM28.16 10.6302C28.0488 10.9428 27.9082 11.2442 27.74 11.5302L27.48 10.7202L27.36 10.3802L28.18 10.5702L28.16 10.6302ZM28.28 10.0302C28.2856 10.1168 28.2856 10.2036 28.28 10.2902L27.48 10.0902L27.55 10.0302L28.37 9.28021C28.3343 9.52565 28.274 9.76687 28.19 10.0002L28.28 10.0302ZM28.28 8.91021L27.98 9.19021L27.11 9.97021L26.36 9.1802L26.9 8.1802L28.3 8.9002L28.28 8.91021ZM38.28 9.28021L29.01 10.5102C29.0601 10.3581 29.0904 10.2001 29.1 10.0402C29.16 9.62236 29.16 9.19806 29.1 8.78021C28.9985 7.98872 28.6993 7.23554 28.23 6.59021L37.76 5.3302C38.1494 5.27687 38.546 5.3395 38.9 5.51022C39.2538 5.68109 39.5494 5.95237 39.75 6.29022L39.82 6.4302C39.8781 6.54785 39.9217 6.67208 39.95 6.8002C39.9716 6.8791 39.9883 6.95927 40 7.04022C40.0682 7.56521 39.9254 8.09579 39.603 8.51568C39.2805 8.93557 38.8048 9.2105 38.28 9.28021Z" fill="#7C6345"/>
</svg>
