<svg width="37" height="9" viewBox="0 0 37 9" fill="none" xmlns="http://www.w3.org/2000/svg">
<path d="M33.72 1.7925H27.098C26.513 1.2825 25.748 0.9975 24.953 0.9975C24.15 0.9975 23.392 1.2825 22.808 1.7925C22.56 1.995 22.343 2.25 22.163 2.5425C22.155 2.5425 22.155 2.55 22.155 2.55C22.125 2.5875 22.11 2.6325 22.088 2.67C22.065 2.625 22.05 2.5875 22.028 2.5425C21.945 2.37 21.863 2.19 21.758 2.025C21.705 1.9425 21.653 1.8675 21.6 1.7925C20.805 0.6825 19.493 0 18.113 0C16.71 0 15.435 0.6675 14.625 1.7925C14.573 1.8675 14.52 1.95 14.475 2.025C14.37 2.19 14.28 2.3625 14.205 2.5425C14.183 2.5875 14.16 2.6325 14.145 2.6775C14.122 2.6325 14.1 2.595 14.077 2.55C14.077 2.55 14.077 2.5425 14.07 2.5425C13.898 2.25 13.68 2.0025 13.425 1.7925C12.84 1.2825 12.09 0.9975 11.28 0.9975C10.47 0.9975 9.713 1.2825 9.128 1.7925H2.513C1.125 1.7925 0 2.9175 0 4.305C0 5.6925 1.125 6.8175 2.513 6.8175H9.128C9.705 7.3125 10.455 7.6125 11.28 7.6125C12.09 7.6125 12.833 7.3125 13.403 6.8175C13.657 6.6075 13.875 6.3525 14.047 6.0675C14.085 6.0225 14.115 5.9775 14.138 5.9325C14.153 5.9775 14.175 6.0225 14.198 6.0675C14.318 6.33 14.46 6.585 14.633 6.8175C15.413 7.8975 16.68 8.6025 18.113 8.6025C19.553 8.6025 20.82 7.8975 21.6 6.8175C21.773 6.585 21.915 6.33 22.035 6.0675C22.058 6.0225 22.08 5.9775 22.095 5.9325C22.118 5.9775 22.148 6.0225 22.185 6.0675C22.358 6.3525 22.575 6.6075 22.83 6.8175C23.4 7.3125 24.143 7.6125 24.953 7.6125C25.77 7.6125 26.528 7.3125 27.105 6.8175H33.72C35.108 6.8175 36.24 5.6925 36.24 4.305C36.24 2.9175 35.108 1.7925 33.72 1.7925ZM13.815 3.975L13.253 3.585L13.665 3.405C13.733 3.585 13.785 3.78 13.815 3.975ZM13.298 2.7751C13.343 2.8351 13.403 2.8876 13.44 2.9551C13.5 3.0376 13.545 3.1351 13.59 3.2251L13.185 3.4051L13.298 2.7751ZM13.11 2.5425C13.125 2.5575 13.133 2.565 13.14 2.58L12.983 3.4575L12.24 3.3375L12.128 2.595L12.428 2.5425L13.02 2.4375C13.05 2.4675 13.08 2.505 13.11 2.5425ZM11.28 5.4376L10.47 5.1076L10.14 4.2976L10.47 3.4951L11.28 3.1576L12.083 3.4951L12.42 4.2976L12.083 5.1076L11.28 5.4376ZM12.038 5.3325L11.94 5.91L11.468 5.565L12.038 5.3325ZM11.093 5.5575L10.613 5.9025L10.523 5.325L11.093 5.5575ZM8.73 4.3875C8.73 4.3575 8.723 4.3275 8.723 4.2975C8.723 4.275 8.73 4.245 8.73 4.215L9.48 3.6975L9.923 4.2975L9.48 4.905L8.73 4.3875ZM9.308 5.01L8.888 5.1975C8.82 5.0175 8.783 4.8225 8.753 4.6275L9.308 5.01ZM8.745 3.9826C8.768 3.7876 8.82 3.6001 8.888 3.4201L9.308 3.5851L8.745 3.9826ZM9.668 3.6375L10.245 3.5475L10.013 4.11L9.668 3.6375ZM10.02 4.485L10.253 5.055L9.668 4.9575L10.02 4.485ZM10.523 3.2625L10.62 2.685L11.093 3.03L10.523 3.2625ZM11.468 3.0375L11.948 2.6925L12.038 3.27L11.468 3.0375ZM12.548 4.485L12.893 4.9575L12.308 5.055L12.548 4.485ZM12.308 3.54L12.885 3.6375L12.548 4.11L12.308 3.54ZM12.323 1.9875C12.503 2.0625 12.66 2.1675 12.81 2.28L12.165 2.4L12.323 1.9875ZM12.143 1.9125L11.993 2.3175L11.618 1.7925C11.798 1.815 11.978 1.8525 12.143 1.9125ZM11.19 1.755C11.22 1.755 11.25 1.7475 11.28 1.7475C11.31 1.7475 11.34 1.755 11.37 1.755L11.393 1.7925L11.888 2.4975L11.828 2.5425L11.28 2.9475L10.725 2.5425L10.673 2.505L11.168 1.7925L11.19 1.755ZM10.928 1.7925L10.56 2.325L10.38 1.9275C10.56 1.86 10.74 1.815 10.928 1.7925ZM10.208 1.995L10.38 2.4L9.743 2.28C9.885 2.1675 10.043 2.0701 10.208 1.995ZM9.443 2.5425C9.473 2.505 9.495 2.4675 9.533 2.4375L10.133 2.5425L10.433 2.595L10.32 3.345L9.578 3.4575L9.42 2.5725C9.428 2.565 9.435 2.55 9.443 2.5425ZM9.263 2.7676L9.375 3.4126L8.955 3.2476C9 3.1426 9.053 3.0451 9.113 2.9476C9.158 2.88 9.21 2.8275 9.263 2.7676ZM2.513 6.0675C1.538 6.0675 0.75 5.2725 0.75 4.305C0.75 3.33 1.538 2.5425 2.513 2.5425H8.483C8.475 2.5425 8.475 2.55 8.475 2.55C8.145 3.075 7.973 3.6825 7.973 4.2975C7.973 4.95 8.16 5.5575 8.483 6.0675H2.513ZM9.255 5.85C9.143 5.7 9.045 5.5425 8.963 5.37L9.375 5.19L9.255 5.85ZM9.435 6.0675C9.428 6.06 9.42 6.0525 9.413 6.045L9.578 5.145L10.32 5.265L10.433 6L10.065 6.0675L9.533 6.165C9.503 6.1275 9.465 6.0976 9.435 6.0675ZM10.223 6.63C10.043 6.5475 9.878 6.4425 9.728 6.3225L10.388 6.2025L10.223 6.63ZM10.868 6.8175C10.71 6.7875 10.56 6.7575 10.41 6.6975L10.568 6.2775L10.943 6.8175L10.95 6.8325C10.92 6.825 10.898 6.825 10.868 6.8175ZM11.363 6.855C11.333 6.855 11.303 6.8625 11.28 6.8625C11.25 6.8625 11.228 6.855 11.198 6.855L11.175 6.8175L10.673 6.0975L10.71 6.0675L11.28 5.655L11.85 6.0675L11.888 6.0975L11.385 6.8175L11.363 6.855ZM11.655 6.8175C11.64 6.825 11.633 6.825 11.618 6.825L11.625 6.8175L12 6.27L12.188 6.69C12.015 6.7501 11.835 6.7951 11.655 6.8175ZM12.36 6.6151L12.173 6.2026L12.833 6.3226C12.683 6.435 12.525 6.5325 12.36 6.6151ZM13.118 6.0675C13.088 6.0975 13.058 6.1275 13.028 6.165L12.495 6.0675L12.128 6L12.24 5.2575L12.983 5.145L13.148 6.0375C13.14 6.0451 13.125 6.06 13.118 6.0675ZM13.305 5.85L13.185 5.19L13.605 5.3475C13.523 5.5276 13.418 5.6925 13.305 5.85ZM13.673 5.175L13.253 5.01L13.808 4.6275C13.778 4.815 13.74 5.0025 13.673 5.175ZM13.823 4.3875L13.073 4.905L12.638 4.2975L13.073 3.6975L13.823 4.2075C13.823 4.2375 13.815 4.2675 13.815 4.2975C13.815 4.3275 13.823 4.3576 13.823 4.3875ZM21.645 3.96L20.76 3.345L21.428 3.045C21.54 3.3376 21.615 3.645 21.645 3.96ZM20.768 2.5425L20.858 2.055C20.948 2.1675 21.038 2.295 21.12 2.4225C21.15 2.46 21.173 2.505 21.195 2.5425C21.248 2.6325 21.293 2.715 21.33 2.805L20.663 3.0975L20.768 2.5425ZM20.603 1.7776C20.603 1.7851 20.61 1.7851 20.618 1.7926C20.618 1.8001 20.633 1.8151 20.64 1.8226L20.505 2.5426L20.392 3.1651L19.403 3.0076L19.327 2.5426L19.245 2.0176L20.52 1.7926L20.603 1.7776ZM18.12 5.8201L17.033 5.3776L16.59 4.2976L17.033 3.2176L18.12 2.7676L19.2 3.2176L19.643 4.2976L19.2 5.3776L18.12 5.8201ZM19.133 5.6776L19.073 6.0676L19.005 6.4576L18.473 6.0676L18.368 5.9926L19.133 5.6776ZM17.865 5.985L17.753 6.0675L17.22 6.45L17.16 6.0675L17.1 5.67L17.865 5.985ZM16.425 4.5526L16.74 5.3101L15.968 5.1826L16.425 4.5526ZM16.418 4.0425L15.953 3.4125L16.733 3.2925L16.418 4.0425ZM17.1 2.9175L17.16 2.5425L17.228 2.1375L17.783 2.5425L17.865 2.6025L17.1 2.9175ZM18.368 2.61L18.458 2.5425L19.013 2.145L19.073 2.5425L19.133 2.925L18.368 2.61ZM19.815 4.5526L20.28 5.1826L19.493 5.3101L19.815 4.5526ZM19.493 3.2851L20.273 3.4126L19.815 4.0426L19.493 3.2851ZM20.355 1.56L19.305 1.7475L19.568 1.0725C19.853 1.2 20.115 1.3651 20.355 1.56ZM19.328 0.975L19.073 1.65L18.458 0.7725C18.758 0.8026 19.05 0.87 19.328 0.975ZM18.113 0.7501C18.12 0.7501 18.128 0.7576 18.143 0.7576L18.87 1.7926L18.93 1.8826L18.12 2.4826L17.303 1.8976L17.378 1.7926L18.098 0.7501C18.098 0.7501 18.105 0.7501 18.113 0.7501ZM17.76 0.7725L17.153 1.6575L16.853 0.9825C17.145 0.8775 17.445 0.8026 17.76 0.7725ZM16.628 1.0876L16.92 1.7476L15.87 1.5601C16.103 1.3725 16.35 1.2075 16.628 1.0876ZM15.615 1.7925C15.623 1.785 15.623 1.7775 15.63 1.7775L15.713 1.7925L16.988 2.0175L16.905 2.5425L16.83 3.015L15.84 3.165L15.728 2.5425L15.593 1.815C15.6 1.8075 15.608 1.8 15.615 1.7925ZM15.038 2.5425C15.06 2.4975 15.09 2.46 15.113 2.4225C15.188 2.2875 15.278 2.1675 15.375 2.0475L15.465 2.5425L15.57 3.105L14.88 2.8425C14.925 2.7375 14.978 2.64 15.038 2.5425ZM14.79 3.0825L15.473 3.345L14.588 3.96C14.618 3.6601 14.685 3.3675 14.79 3.0825ZM14.588 4.2676L15.713 3.4876L16.305 4.2976L15.713 5.1076L14.588 4.3276V4.2676ZM14.603 4.6426L15.473 5.2501L14.805 5.5501C14.693 5.265 14.633 4.9575 14.603 4.6426ZM15.465 6.0675L15.383 6.54C15.263 6.39 15.15 6.2325 15.06 6.0675C15 5.9775 14.948 5.8875 14.903 5.79L15.57 5.4975L15.465 6.0675ZM15.593 6.7951L15.728 6.0676L15.84 5.4301L16.83 5.5876L16.905 6.0676L16.988 6.5776L15.615 6.8176L15.593 6.7951ZM15.87 7.0351L16.928 6.8476L16.658 7.5376C16.373 7.4026 16.11 7.23 15.87 7.0351ZM16.905 7.6275L17.16 6.945L17.775 7.8225C17.475 7.7925 17.183 7.7326 16.905 7.6275ZM18.113 7.8525H18.105L17.378 6.8175L17.303 6.7125L18.12 6.1125L18.93 6.6975L18.848 6.8175L18.128 7.8525C18.128 7.8525 18.12 7.8525 18.113 7.8525ZM18.473 7.815L19.08 6.9375L19.38 7.6125C19.095 7.7175 18.788 7.7851 18.473 7.815ZM19.613 7.515L19.313 6.8475L20.363 7.035C20.13 7.2226 19.883 7.3875 19.613 7.515ZM20.618 6.8175L19.245 6.5775L19.328 6.0675L19.403 5.58L20.393 5.43L20.505 6.0675L20.64 6.795C20.633 6.8026 20.625 6.81 20.618 6.8175ZM21.18 6.0675C21.09 6.2325 20.978 6.3825 20.858 6.5325L20.768 6.0675L20.663 5.4825L21.353 5.7525C21.3 5.8651 21.248 5.97 21.18 6.0675ZM21.443 5.5125L20.76 5.25L21.638 4.635C21.608 4.9425 21.54 5.235 21.443 5.5125ZM21.653 4.3275L20.52 5.1075L19.935 4.2975L20.52 3.4875L21.653 4.2675C21.653 4.275 21.645 4.29 21.645 4.2975C21.645 4.3126 21.653 4.3201 21.653 4.3275ZM26.753 4.905L26.31 4.2975L26.753 3.6975L27.51 4.215V4.2975C27.51 4.3275 27.503 4.3575 27.503 4.3875L26.753 4.905ZM27.48 4.6275C27.458 4.815 27.413 5.0025 27.353 5.175L26.925 5.01L27.48 4.6275ZM24.953 5.4376L24.15 5.1076L23.813 4.2976L24.15 3.4951L24.953 3.1576L25.763 3.4951L26.093 4.2976L25.763 5.1076L24.953 5.4376ZM25.71 5.3325L25.62 5.91L25.14 5.565L25.71 5.3325ZM24.765 5.5575L24.285 5.9025L24.195 5.325L24.765 5.5575ZM23.693 4.485L23.925 5.055L23.348 4.9575L23.693 4.485ZM23.685 4.11L23.34 3.6375L23.918 3.5475L23.685 4.11ZM24.195 3.2625L24.293 2.685L24.765 3.03L24.195 3.2625ZM25.14 3.0375L25.62 2.6925L25.71 3.27L25.14 3.0375ZM25.98 3.54L26.565 3.6375L26.22 4.11L25.98 3.54ZM26.22 4.485L26.565 4.9575L25.98 5.055L26.22 4.485ZM26.925 3.585L27.338 3.405C27.413 3.585 27.465 3.78 27.488 3.975L26.925 3.585ZM26.978 2.7525C27.023 2.82 27.075 2.88 27.12 2.955C27.173 3.0375 27.225 3.1275 27.27 3.225L26.858 3.405L26.978 2.7525ZM26.798 2.5425C26.805 2.55 26.813 2.5575 26.82 2.565L26.655 3.4575L25.913 3.3375L25.8 2.595L26.1 2.5425L26.693 2.4375C26.73 2.4675 26.76 2.505 26.798 2.5425ZM26.003 1.98C26.183 2.0625 26.348 2.16 26.505 2.28L25.845 2.4L26.003 1.98ZM25.395 1.7925C25.545 1.815 25.688 1.8525 25.823 1.905L25.665 2.3175L25.29 1.7925L25.275 1.77C25.313 1.7776 25.358 1.7776 25.395 1.7925ZM24.863 1.755C24.893 1.755 24.923 1.7475 24.953 1.7475C24.983 1.7475 25.013 1.7475 25.043 1.755L25.065 1.7925L25.56 2.4975L25.5 2.5425L24.953 2.9475L24.405 2.5425L24.353 2.505L24.84 1.7925L24.863 1.755ZM24.608 1.7925L24.233 2.325L24.06 1.9275C24.233 1.86 24.413 1.815 24.608 1.7925ZM23.88 1.995L24.06 2.4L23.415 2.28C23.565 2.1675 23.715 2.0701 23.88 1.995ZM23.115 2.5425C23.145 2.505 23.175 2.4675 23.205 2.4375L23.813 2.5425L24.113 2.595L23.993 3.345L23.25 3.4575L23.093 2.5725C23.1 2.565 23.108 2.55 23.115 2.5425ZM22.785 2.9475C22.83 2.88 22.89 2.8275 22.935 2.7675L23.048 3.4125L22.628 3.2475C22.673 3.1426 22.725 3.0451 22.785 2.9475ZM22.56 3.4201L22.98 3.5851L22.418 3.9826C22.44 3.7875 22.493 3.6 22.56 3.4201ZM22.41 4.2075L23.16 3.6975L23.595 4.2975L23.16 4.905L22.41 4.3875C22.418 4.3575 22.418 4.3275 22.418 4.2975C22.418 4.2675 22.41 4.2375 22.41 4.2075ZM22.433 4.6275L22.98 5.01L22.568 5.1975C22.5 5.0176 22.455 4.8225 22.433 4.6275ZM22.928 5.85C22.815 5.7 22.718 5.5425 22.643 5.3775L23.048 5.19L22.928 5.85ZM23.115 6.0675L23.093 6.045L23.25 5.145L23.993 5.265L24.113 6L23.745 6.0675L23.205 6.165C23.175 6.1275 23.145 6.0976 23.115 6.0675ZM23.903 6.63C23.723 6.5475 23.558 6.4425 23.4 6.3225L24.068 6.2025L23.903 6.63ZM24.548 6.8175C24.39 6.7875 24.233 6.7575 24.083 6.6975L24.24 6.2775L24.623 6.8175L24.63 6.8325C24.6 6.825 24.578 6.825 24.548 6.8175ZM25.035 6.855C25.005 6.855 24.983 6.8625 24.953 6.8625C24.922 6.8625 24.9 6.855 24.87 6.855L24.848 6.8175L24.353 6.0975L24.39 6.0675L24.953 5.655L25.523 6.0675L25.56 6.0975L25.058 6.8175L25.035 6.855ZM25.335 6.8175C25.32 6.825 25.305 6.825 25.29 6.825L25.298 6.8175L25.673 6.27L25.86 6.69C25.695 6.7501 25.515 6.7951 25.335 6.8175ZM26.033 6.6151L25.853 6.2026L26.505 6.3226C26.363 6.435 26.205 6.5325 26.033 6.6151ZM26.79 6.0675C26.76 6.0975 26.73 6.1275 26.7 6.165L26.168 6.0675L25.8 6L25.913 5.2575L26.655 5.145L26.82 6.0375C26.813 6.0451 26.805 6.06 26.79 6.0675ZM26.978 5.85L26.858 5.19L27.285 5.3475C27.203 5.5276 27.098 5.6925 26.978 5.85ZM33.72 6.0675H27.743C28.073 5.5575 28.26 4.95 28.26 4.2975C28.26 3.675 28.088 3.0675 27.75 2.55C27.75 2.55 27.75 2.5425 27.743 2.5425H33.72C34.695 2.5425 35.49 3.33 35.49 4.305C35.49 5.2725 34.695 6.0675 33.72 6.0675Z" fill="#7C6345"/>
</svg>
