<svg width="20" height="20" viewBox="0 0 20 20" fill="none" xmlns="http://www.w3.org/2000/svg">
<path d="M19.2106 7.08213C18.7848 5.64313 18.0359 4.3191 17.0464 3.2421C15.2331 1.2751 12.5446 0.100098 9.8562 0.100098C7.29392 0.100098 4.79472 1.12111 2.99322 2.90711C0.647715 5.22511 -0.381185 8.6631 0.312615 11.8731C0.734415 13.8081 1.73961 15.6061 3.14691 16.9391C5.50031 19.1701 8.922 20.0931 12.0677 19.3561C14.0032 18.8981 15.7968 17.8381 17.1174 16.3671C18.7099 14.5891 19.5929 12.2751 19.6048 9.8461C19.6087 8.9001 19.4747 7.9731 19.2106 7.08213ZM16.7468 3.5701L16.8809 3.72312C17.4564 4.38612 17.9255 5.10713 18.3157 5.92713L18.3591 6.0221L16.1279 7.00412L16.7468 3.5701ZM9.8562 13.7851L7.0692 12.6301L5.91421 9.8461L7.0692 7.05911L9.8562 5.90711L12.6432 7.05911L13.7982 9.8461L12.6432 12.6301L9.8562 13.7851ZM12.5249 13.1621L12.1544 15.4411L10.2938 14.0771L12.5249 13.1621ZM9.4226 14.0571L7.53832 15.4211L7.18751 13.1381L9.4226 14.0571ZM5.42151 9.8461L3.84071 12.0151L0.695015 9.8461L3.84071 7.6781L5.42151 9.8461ZM4.25461 7.5481L6.53702 7.20111L5.61862 9.4091L4.25461 7.5481ZM5.64221 10.2801L6.56072 12.5111L4.27832 12.1411L5.64221 10.2801ZM7.18751 6.53012L7.55802 4.25211L9.4186 5.61612L7.18751 6.53012ZM10.2898 5.6351L12.1741 4.27112L12.5249 6.55011L10.2898 5.6351ZM13.1517 7.17713L15.4341 7.55213L14.0939 9.4081L13.1517 7.17713ZM14.0939 10.2841L15.4578 12.1411L13.1517 12.5111L14.0939 10.2841ZM14.291 9.8461L15.8717 7.6781L19.0174 9.8461L15.8717 12.0151L14.291 9.8461ZM15.6588 7.1221L12.9901 6.69211L12.5841 4.05112L16.3369 3.3721L15.6588 7.1221ZM13.6721 1.33011C14.5314 1.74811 15.2883 2.2371 15.9821 2.8241L16.1398 2.9621L12.6905 3.57712L13.5735 1.28311L13.6721 1.33011ZM10.479 0.557098C11.3187 0.616098 12.1859 0.798118 13.0453 1.09412L13.1438 1.12512L12.2766 3.40811L10.2701 0.542118L10.479 0.557098ZM12.0282 3.81412L9.8562 5.4151L7.68422 3.83411L9.8562 0.695098L12.0282 3.81412ZM6.51341 1.13712C7.41611 0.798118 8.32281 0.597118 9.21371 0.538118L9.4186 0.522098L7.42011 3.42011L6.41882 1.17212L6.51341 1.13712ZM3.73032 2.8241C4.41232 2.2531 5.15341 1.7721 5.93391 1.3931L6.02852 1.3501L7.01012 3.58112L3.56882 2.9581L3.73032 2.8241ZM7.12832 4.05011L6.72232 6.7121L4.05362 7.1221L3.37562 3.3721L7.12832 4.05011ZM1.33361 6.03412C1.75151 5.17412 2.24031 4.41711 2.83161 3.72711L2.96562 3.5661L3.58452 7.01511L1.28631 6.12812L1.33361 6.03412ZM0.580715 9.2271C0.624015 8.3601 0.801515 7.48812 1.11681 6.63712L1.15232 6.54212L3.43072 7.42911L0.572815 9.4281L0.580715 9.2271ZM1.13652 13.1621C0.813315 12.2591 0.620115 11.3521 0.561015 10.4651L0.545215 10.2601L3.42291 12.2551L1.17202 13.2601L1.13652 13.1621ZM2.96562 16.1231L2.83161 15.9651C2.25601 15.3071 1.78692 14.5851 1.39672 13.7611L1.35331 13.6701L3.58452 12.6891L2.96562 16.1231ZM4.05362 12.5701L6.72232 13.0001L7.12832 15.6421L3.37562 16.3201L4.05362 12.5701ZM6.04042 18.3621C5.18102 17.9401 4.42412 17.4511 3.73032 16.8641L3.57271 16.7301L7.02191 16.1111L6.13892 18.4091L6.04042 18.3621ZM9.2334 19.1351C8.3898 19.0721 7.52651 18.8941 6.66711 18.5991L6.56862 18.5671L7.43582 16.2841L9.4423 19.1471L9.2334 19.1351ZM7.68422 15.8781L9.8562 14.2781L12.0282 15.8591L9.8562 18.9971L7.68422 15.8781ZM13.199 18.5551C12.2963 18.8941 11.3896 19.0951 10.4988 19.1551L10.2938 19.1701L12.2924 16.2731L13.2936 18.5201L13.199 18.5551ZM15.9821 16.8641C15.3592 17.4081 14.6142 17.8891 13.7785 18.2991L13.6839 18.3421L12.7023 16.1111L16.1358 16.7301L15.9821 16.8641ZM12.5841 15.6421L12.9901 12.9771L15.6588 12.5701L16.3369 16.3201L12.5841 15.6421ZM18.3788 13.6591C17.961 14.5181 17.4721 15.2711 16.8809 15.9651L16.7468 16.1231L16.1279 12.6771L18.4261 13.5601L18.3788 13.6591ZM19.1317 10.4651C19.0884 11.3321 18.9109 12.2041 18.5956 13.0551L18.5601 13.1501L16.2817 12.2631L19.1396 10.2641L19.1317 10.4651ZM16.2895 7.43311L18.5404 6.4321L18.5759 6.53012C18.8991 7.43312 19.0923 8.3401 19.1514 9.2231L19.1672 9.4281L16.2895 7.43311Z" stroke="#7C6345" stroke-width="0.2"/>
</svg>
