<svg width="20" height="20" viewBox="0 0 20 20" fill="none" xmlns="http://www.w3.org/2000/svg">
<path d="M0.125 0.125V19.63H19.63V0.125H0.125ZM9.878 15.15L12.813 16.541H6.9422L9.878 15.15ZM6.1389 16.458L5.7989 14.504L9.1481 15.04L6.1389 16.458ZM10.608 15.04L13.933 14.504L13.616 16.458L10.608 15.04ZM9.866 14.705L9.858 14.697L9.851 14.701L9.82 14.697L5.74879 14.031L5.0728 9.878L5.74879 5.72L9.851 5.05103L9.878 5.06201L9.905 5.05103L9.936 5.05502L14.03 5.72L14.698 9.805L14.007 14.031L9.866 14.705ZM4.6054 9.878L3.2149 12.805V6.97L4.6054 9.878ZM3.3154 6.11401L5.2698 5.79501L4.73299 9.145L3.3154 6.11401ZM4.73299 10.611L5.2698 13.936L3.3154 13.617L4.73299 10.611ZM9.878 4.60501L6.9422 3.21002H12.836L9.878 4.60501ZM13.616 3.31302L13.933 5.27103L10.608 4.73102L13.616 3.31302ZM9.1481 4.73102L5.8221 5.27103L6.1389 3.31302L9.1481 4.73102ZM14.485 5.815L16.44 6.134L15.022 9.141L14.485 5.815ZM15.022 10.63L16.44 13.66L14.485 13.976L15.022 10.63ZM15.15 9.878L16.54 6.94601V12.829L15.15 9.878ZM14.389 5.34201L14.026 3.104L18.958 0.79501L16.625 5.70502L14.389 5.34201ZM18.429 0.56201L13.755 2.77301L5.9804 2.76102L1.32629 0.56201H18.429ZM5.7062 3.104L5.3432 5.366L3.1068 5.724L0.80099 0.79501L5.7062 3.104ZM0.5692 1.33102L2.7708 6.02002L2.763 13.775L0.5692 18.421V1.33102ZM3.13 14.066L5.36639 14.429L5.7294 16.671L0.7971 18.976L3.13 14.066ZM1.32629 19.213L6.02299 17.002L13.775 17.01L18.429 19.213H1.32629ZM14.049 16.651L14.412 14.429L16.648 14.066L18.954 18.98L14.049 16.651ZM19.186 18.421L16.984 13.751L16.992 5.97702L19.186 1.33102V18.421Z" stroke="#7C6345" stroke-width="0.25"/>
</svg>
