<svg width="13" height="20" viewBox="0 0 13 20" fill="none" xmlns="http://www.w3.org/2000/svg">
<path d="M12.738 2.40002L10.515 0.16901C10.487 0.14101 10.443 0.125 10.393 0.125H2.54203C2.47003 0.125 2.43901 0.15902 2.43601 0.16202L0.191019 2.41901C0.181019 2.42801 0.12504 2.472 0.12504 2.565V17.177C0.12504 17.236 0.12201 17.268 0.16901 17.311L2.43201 19.583C2.46101 19.615 2.50103 19.63 2.55503 19.63H10.393C10.468 19.63 10.509 19.593 10.515 19.583L10.54 19.562L12.779 17.311C12.816 17.274 12.823 17.23 12.823 17.187V2.58401C12.823 2.51601 12.81 2.47202 12.738 2.40002ZM10.478 0.71503L12.277 2.52502L11.001 3.04001L9.966 1.99802L10.478 0.71503ZM9.192 16.478H3.75202L3.32603 16.026V3.81403L3.77802 3.36401H9.217L9.666 3.81403V16.029L9.192 16.478ZM9.437 17.602H3.51401L3.79902 16.884H9.123L9.437 17.602ZM2.92502 3.86401V15.957L2.20704 16.272V3.57401L2.92502 3.86401ZM2.34803 3.20203L3.14402 2.40302L3.42902 3.12402L3.06602 3.48901L2.34803 3.20203ZM3.06602 16.353L3.42902 16.718L3.14402 17.439L2.34803 16.64L3.06602 16.353ZM3.51401 2.263H9.412L9.126 2.98102H3.79902L3.51401 2.263ZM9.518 3.12402L9.803 2.40302L10.6 3.20203L9.882 3.48901L9.518 3.12402ZM9.882 16.353L10.6 16.64L9.803 17.439L9.518 16.718L9.882 16.353ZM10.045 15.982V3.86401L10.763 3.57401V16.241L10.045 15.982ZM10.104 0.57401L9.597 1.85703H3.35102L2.84302 0.57401H10.104ZM2.47004 0.71503L2.98102 1.99802L1.94602 3.04001L0.67002 2.52502L2.47004 0.71503ZM0.529029 2.89902L1.80503 3.41101V16.406L0.529029 16.921V2.89902ZM2.47004 19.128L0.67002 17.318L1.94602 16.803L2.98102 17.842L2.47004 19.128ZM2.84302 19.29L3.35102 18.01H9.571L10.082 19.29H2.84302ZM10.478 19.128L9.966 17.842L11.001 16.803L12.277 17.318L10.478 19.128ZM12.443 16.943L11.164 16.431V3.41101L12.443 2.89902V16.943Z" stroke="#7C6345" stroke-width="0.25"/>
</svg>
