<svg width="18" height="20" viewBox="0 0 18 20" fill="none" xmlns="http://www.w3.org/2000/svg">
<path d="M13.4126 0.100098H4.31561C1.99161 0.100098 0.0996094 1.9761 0.0996094 4.2811V15.4241C0.0996094 17.7301 1.99161 19.6051 4.31561 19.6051H13.4126C15.7366 19.6051 17.6286 17.7301 17.6286 15.4241V4.2811C17.6286 1.9761 15.7366 0.100098 13.4126 0.100098ZM16.4176 2.01111L16.5276 2.1691C16.9556 2.7991 17.1856 3.5281 17.1856 4.2811V4.5491H15.4706L16.4176 2.01111ZM17.1616 4.98611V8.4891L15.4986 4.98611H17.1616ZM13.1196 0.537107H13.3886C14.3156 0.537107 15.1856 0.868108 15.9106 1.49511L16.0646 1.62512L13.1196 2.1961V0.537107ZM13.1196 2.63009L15.9146 2.09411L14.9956 4.5491H13.1196V2.63009ZM13.1196 4.98611H14.8016L13.1196 8.7931V4.98611ZM13.1196 10.8931L14.8256 14.6951H13.1196V10.8931ZM13.1196 15.1561H14.9956L15.8906 17.6071L13.1196 17.0711V15.1561ZM5.02861 0.537107H7.98161L5.02861 2.09012V0.537107ZM8.86361 0.565118L12.4626 2.45212L8.86361 4.52112L5.26161 2.45212L8.86361 0.565118ZM5.02861 2.81512L8.03661 4.5491H5.02861V2.81512ZM5.02861 15.1561H8.01661L5.02861 16.8631V15.1561ZM1.79361 1.4711C2.48261 0.857097 3.37361 0.514098 4.29161 0.514098H4.58461V2.17309L1.64362 1.6051L1.79361 1.4711ZM2.70862 4.5491L1.81361 2.09411L4.58461 2.63009V4.5491H2.70862ZM4.58461 4.98611V8.6271L2.89861 4.98611H4.58461ZM0.542619 4.2811C0.542619 3.5281 0.768609 2.7991 1.20061 2.1691L1.30661 2.01111L2.25661 4.5491H0.542619V4.2811ZM0.542619 4.98611H2.22562L0.542619 8.7931V4.98611ZM0.542619 10.8931L2.24561 14.6951H0.542619V10.8931ZM1.31061 17.6941L1.20061 17.5331C0.768609 16.9021 0.542619 16.1731 0.542619 15.4241V15.1561H2.23361L1.31061 17.6941ZM4.58461 19.1641H4.31561C3.39361 19.1641 2.47461 18.8171 1.79361 18.2061L1.64362 18.0761L4.58461 17.5051V19.1641ZM4.58461 17.0721L1.81361 17.6071L2.70862 15.1561H4.58461V17.0721ZM4.58461 14.6951H2.88261L4.58461 10.8931V14.6951ZM4.57662 9.8251L2.56162 14.3761L0.554609 9.8531L2.56162 5.30911L4.61261 9.7381L4.57662 9.8251ZM5.02861 19.1641V17.6111L7.98161 19.1641H5.02861ZM5.26161 17.2251L8.86361 15.1841L12.4626 17.2251L8.86361 19.1361L5.26161 17.2251ZM12.6766 19.1641H9.74661L12.6766 17.6111V19.1641ZM12.6766 16.8631L9.68761 15.1561H12.6766V16.8631ZM12.6766 14.7151H5.02861V4.98611H12.6766V14.7151ZM12.6766 4.56811H9.69161L12.6766 2.83511V4.56811ZM12.6766 2.09012L9.74661 0.537107H12.6766V2.09012ZM15.9106 18.2101C15.1976 18.8251 14.3036 19.1641 13.3886 19.1641H13.1196V17.5051L16.0646 18.0761L15.9106 18.2101ZM17.1616 15.4241C17.1856 16.1611 16.9636 16.8941 16.5276 17.5331L16.4176 17.6901L15.4706 15.1561H17.1616V15.4241ZM17.1856 14.7151H15.4786L17.1856 10.9131V14.7151ZM17.1776 9.8251L15.1626 14.3761L13.1556 9.8531L15.1586 5.31311L17.2486 9.6441L17.1776 9.8251Z" stroke="#7C6345" stroke-width="0.2"/>
</svg>
