<svg width="16" height="22" viewBox="0 0 16 22" fill="none" xmlns="http://www.w3.org/2000/svg">
<path d="M14.7314 6.79413C14.4894 5.95557 14.176 5.1683 13.8002 4.45687C12.4755 1.95236 10.3881 0.331028 8.21143 0.133648C8.05303 0.115808 7.88913 0.111328 7.72633 0.111328C5.95223 0.111328 4.07551 1.11717 2.71174 2.80097C1.18852 4.68102 0.275258 7.32156 0.129178 10.2397C0.115798 10.4806 0.111328 10.736 0.111328 10.9869C0.111328 13.8293 0.879638 16.5233 2.27462 18.5617C2.33595 18.6498 2.3984 18.7335 2.45973 18.8204C3.53692 20.289 5.50173 21.8613 7.77433 21.8613C10.9267 21.8613 12.8513 19.2118 13.5315 18.0744C13.7512 17.7053 13.9508 17.3139 14.127 16.9181C14.379 16.3382 14.5998 15.7227 14.776 15.0904C15.5353 12.3796 15.522 9.51493 14.7314 6.79413ZM14.379 7.36617C14.6076 8.25825 14.7492 9.16263 14.7983 10.0591L14.8161 10.3446L12.7186 8.24932L14.3388 7.22121L14.379 7.36617ZM7.69963 15.3625L5.63777 14.1281L4.73342 10.9869L5.63777 7.84008L7.69963 6.60567L9.76583 7.84008L10.6702 10.9869L9.76583 14.1281L7.69963 15.3625ZM9.65543 14.7436L9.40793 17.0675L8.09213 15.6881L9.65543 14.7436ZM7.28473 15.6881L5.96895 17.0675L5.7225 14.7436L7.28473 15.6881ZM4.18591 10.9869L3.00724 13.3196L0.681148 10.9869L3.00724 8.64853L4.18591 10.9869ZM3.45775 8.40321L5.05568 8.05086L4.40669 10.2922L3.45775 8.40321ZM4.40669 11.6715L5.05568 13.9441L3.45775 13.5873L4.40669 11.6715ZM5.74816 7.22566L5.99126 4.90069L7.31153 6.28453L5.74816 7.22566ZM8.09213 6.28453L9.43463 4.90515L9.67773 7.22121L8.09213 6.28453ZM10.3479 8.0252L11.9458 8.38092L10.9924 10.2966L10.3479 8.0252ZM10.9924 11.676L11.9458 13.5661L10.3479 13.9218L10.9924 11.676ZM11.2177 10.9869L12.3963 8.64853L14.7224 10.9869L12.3963 13.3196L11.2177 10.9869ZM13.0944 4.18926L13.2617 4.48365C13.6241 5.13376 13.924 5.84071 14.1794 6.65362L14.2017 6.73281L12.6573 7.73081L13.0944 4.18926ZM12.1008 7.92818L10.2074 7.50668L9.89413 4.52269L12.6038 3.82017L12.1008 7.92818ZM10.7627 1.61005C11.3192 1.98807 11.8756 2.51885 12.4142 3.19126L12.5201 3.32282L9.98223 3.97851L10.6356 1.52195L10.7627 1.61005ZM8.30393 0.647708C8.92283 0.717958 9.52273 0.901958 10.0881 1.2008L10.1673 1.24093L9.55403 3.57372L8.10543 0.625388L8.30393 0.647708ZM9.31093 4.29407L7.69963 5.96897L6.09272 4.27291L7.70403 0.951018L9.31093 4.29407ZM5.18838 1.2755C5.79277 0.933158 6.45513 0.717958 7.09963 0.647708L7.29813 0.625388L5.8329 3.62613L5.10809 1.32011L5.18838 1.2755ZM3.0117 3.19572C3.48896 2.559 4.00972 2.04939 4.56504 1.68029L4.6888 1.59664L5.43035 3.98297L2.9147 3.32282L3.0117 3.19572ZM5.51065 4.50149L5.17053 7.50668L3.30274 7.92818L2.77308 3.79784L5.51065 4.50149ZM1.19743 6.79413C1.43161 6.00798 1.74049 5.25196 2.14192 4.48365L2.30585 4.16697L2.74742 7.76092L1.17515 6.87777L1.19743 6.79413ZM0.606428 10.0814C0.649918 9.25513 0.778158 8.41549 1.00341 7.51114L1.03463 7.37063L2.66714 8.28835L0.588598 10.3669L0.606428 10.0814ZM1.02572 14.6031C0.796008 13.711 0.649918 12.8056 0.606428 11.9135L0.588598 11.6236L2.68498 13.72L1.06473 14.7481L1.02572 14.6031ZM2.3103 17.7845L2.14192 17.4857C1.78063 16.8345 1.47956 16.1275 1.2242 15.3146L1.19743 15.2354L2.74631 14.2385L2.3103 17.7845ZM3.30274 14.04L5.1973 14.4626L5.51065 17.4455L2.79983 18.1492L3.30274 14.04ZM4.6364 20.3593C4.08442 19.9813 3.528 19.4494 2.98941 18.7769L2.88347 18.6454L5.42144 17.9908L4.7691 20.4463L4.6364 20.3593ZM7.09963 21.3216C6.48193 21.2514 5.88085 21.0662 5.31215 20.7674L5.23633 20.7284L5.84962 18.3945L7.29813 21.3472L7.09963 21.3216ZM7.69963 21.0183L6.09272 17.6741L7.70403 16.0004L9.31093 17.6964L7.69963 21.0183ZM10.2119 20.6971C9.59303 21.0183 8.96183 21.2291 8.33073 21.3216L8.12783 21.3517L9.56733 18.3376L10.2955 20.6536L10.2119 20.6971ZM12.4142 18.8037C11.8756 19.4538 11.3593 19.9411 10.8386 20.289L10.7148 20.3715L10 18.0086L12.5201 18.6721L12.4142 18.8037ZM9.89413 17.4678L10.233 14.4626L12.1008 14.04L12.6305 18.1703L9.89413 17.4678ZM14.2285 15.1785C13.9597 15.9959 13.6452 16.7519 13.2617 17.4857L13.0989 17.8012L12.6573 14.2117L14.2552 15.0904L14.2285 15.1785ZM14.7983 11.8867C14.7537 12.713 14.621 13.5572 14.4002 14.4582L14.3656 14.6031L12.7365 13.6798L14.8161 11.6013L14.7983 11.8867Z" stroke="#7C6345" stroke-width="0.22302"/>
</svg>
